<svg id="Capa_1" data-name="Capa 1" xmlns="http://www.w3.org/2000/svg" viewBox="0 0 1080 1080"><defs><style>.cls-1{fill:#1b213f;}.cls-2{fill:#3d7ec1;}.cls-3{fill:#185a9c;}.cls-4{fill:#2e75ba;}</style></defs><title>logo-empaqplast</title><polygon class="cls-1" points="115.83 738.92 158.78 738.92 158.78 757.78 93.28 757.78 93.28 662.79 157.17 662.79 157.17 681.38 115.83 681.38 115.83 700.65 153.67 700.65 153.67 718.97 115.83 718.97 115.83 738.92"/><polygon class="cls-1" points="252.74 662.79 273.27 662.79 273.27 757.79 250.32 757.79 250.32 699.3 228.58 729.97 218.25 729.97 196.5 699.3 196.5 757.79 173.68 757.79 173.68 662.79 194.08 662.79 223.34 703.1 252.74 662.79"/><path class="cls-1" d="M327.38,711.64c9.79,0,15.57-5.42,15.57-14.52s-5.78-14.52-15.57-14.52H315v29Zm2.41-48.85c22.69,0,36.38,13,36.38,34.06,0,20.63-13.69,34.07-36.38,34.07H315.43v26.87H292.34v-95Z"/><path class="cls-1" d="M411.14,686.54l-14.23,38.94H425.1Zm24.42,71.25-5.63-15.48h-38l-5.5,15.48H362.28l36.37-95h24.7l36,95Z"/><path class="cls-1" d="M510.61,738.25c15.57,0,26.57-11.54,26.57-28s-11-28-26.57-28-26.44,11.54-26.44,28,11,28,26.44,28m36.63,6.65,13,18.59-19.2,13.43L527.65,757a57.53,57.53,0,0,1-17,2.58c-28.86,0-50.07-20.76-50.07-49.26S481.75,661,510.61,661c29.12,0,50,20.77,50,49.27,0,13.84-5,25.92-13.42,34.61"/><path class="cls-1" d="M610.34,711.64c9.8,0,15.57-5.42,15.57-14.52s-5.77-14.52-15.57-14.52H598v29Zm2.42-48.85c22.68,0,36.37,13,36.37,34.06,0,20.63-13.69,34.07-36.37,34.07H598.4v26.87H575.31v-95Z"/><polygon class="cls-1" points="684.44 736.21 724.17 736.21 724.17 757.79 661.36 757.79 661.36 662.79 684.44 662.79 684.44 736.21"/><path class="cls-1" d="M778.53,686.54l-14.22,38.94h28.18ZM803,757.79l-5.64-15.48h-38l-5.51,15.48H729.68l36.37-95h24.7l36,95Z"/><path class="cls-1" d="M830,746.25l9.94-16.83c9.25,6.52,18.52,9.64,28.71,9.64,9.4,0,14.77-3,14.77-8.28,0-5-5-8.14-19.06-12.08-20.67-5.57-30.47-14.38-30.47-29.86,0-16,12.76-27.28,34.49-27.28a59.67,59.67,0,0,1,35.84,11.68l-10.06,16.29a43.12,43.12,0,0,0-25-8.42c-7.64,0-12.48,2.85-12.48,7.46s3.89,7.47,17.85,11.54c21.88,6.11,32.08,15.33,32.08,30.54,0,17-14.9,28.36-37.45,28.36-14.49,0-28.59-4.61-39.19-12.76"/><polygon class="cls-1" points="986.73 662.79 986.73 684.23 959.34 684.23 959.34 757.79 936.26 757.79 936.26 684.23 909.02 684.23 909.02 662.79 986.73 662.79"/><path class="cls-2" d="M119.71,830.71q-3.75-5.58-11.1-5.58T97.5,830.71q-3.39,4.77-3.39,12.58t3.31,12.57q3.83,5.58,11.19,5.58t11.1-5.58q3.32-4.77,3.31-12.57t-3.31-12.58m5.6,31.77H123v-8.56q-3.73,9.52-14.41,9.52-8.48,0-12.88-6-4-5.36-4-14.2t4-14.14q4.48-6.1,12.88-6.1,10.89,0,14.41,9.3V809.06h2.29Z"/><path class="cls-2" d="M108.61,826.91c-4.33,0-7.49,1.57-9.67,4.8-2,2.89-3.08,6.77-3.08,11.58s1,8.69,3,11.55c2.22,3.24,5.41,4.82,9.75,4.82s7.48-1.57,9.66-4.8c2-2.88,3-6.77,3-11.57s-1-8.67-3-11.57h0c-2.18-3.23-5.34-4.8-9.66-4.8m0,38.31c-6.2,0-11-2.24-14.29-6.66-2.86-3.87-4.32-9-4.32-15.27s1.46-11.34,4.32-15.21c3.33-4.52,8.13-6.81,14.29-6.81,5.44,0,9.68,1.62,12.66,4.82V807.28h5.79v57h-5.79v-4.06c-3,3.34-7.27,5-12.66,5"/><path class="cls-2" d="M145.39,855.85c2.56,3.73,6.28,5.59,11.19,5.59s8.6-1.86,11.11-5.59q3.3-4.76,3.3-12.57c0-5.15-1.1-9.35-3.3-12.57q-3.76-5.58-11.11-5.58t-11.11,5.58c-2.26,3.17-3.39,7.37-3.39,12.57s1.1,9.4,3.31,12.57m11.19,7.59q-8.33,0-12.88-5.94-4-5.44-4-14.22t4-14.21q4.41-6,12.88-6c7.1,0,11.92,3.22,14.41,9.66v-8.85h2.29v38.62H171v-8.33q-3.68,9.3-14.41,9.29"/><path class="cls-2" d="M156.58,826.91c-4.33,0-7.49,1.57-9.66,4.8-2,2.89-3.09,6.77-3.09,11.58s1,8.69,3,11.55h0c2.21,3.24,5.4,4.82,9.74,4.82s7.48-1.57,9.66-4.8c2-2.88,3-6.77,3-11.57s-1-8.67-3-11.57c-2.19-3.24-5.35-4.81-9.67-4.81m0,38.31c-6.1,0-10.89-2.24-14.27-6.64-2.89-4-4.34-9.08-4.34-15.29s1.45-11.41,4.32-15.28c3.28-4.46,8.08-6.74,14.29-6.74,5.39,0,9.63,1.72,12.66,5.1v-4.28H175v42.16h-5.79v-3.92c-3,3.25-7.25,4.89-12.66,4.89"/><path class="cls-2" d="M189.39,823.86h2.35v6.33A12.56,12.56,0,0,1,203.66,823q9.27,0,11.33,7.89,4-7.87,12.44-7.89,12.06,0,12.07,13.85v25.58h-2.37V839.26c0-4.31-.36-7.33-1.1-9.07q-2.06-5-8.68-5-6.84,0-9.63,5.06-2.15,3.94-2.14,11.38v20.83H213.3V839.26c0-4.31-.36-7.33-1.1-9.07q-2.07-5-8.68-5-9.79,0-11.41,9.83c-.1.74-.18,1.67-.26,2.78s-.11,2.39-.11,3.83v20.83h-2.35Z"/><path class="cls-2" d="M241.25,864.25h-5.87v-25c0-5.06-.52-7.35-1-8.38-.69-1.69-2.17-3.91-7.07-3.91-3.91,0-6.56,1.35-8.1,4.15-1.27,2.34-1.91,5.88-1.91,10.51v22.61h-5.79v-25c0-5.06-.53-7.35-1-8.38-.69-1.69-2.18-3.91-7.07-3.91-5.66,0-8.73,2.65-9.67,8.33-.09.66-.17,1.55-.24,2.62s-.1,2.33-.1,3.71v22.61h-5.86V822.09h5.86V825a14.36,14.36,0,0,1,10.16-3.67c6.45,0,9.86,2.7,11.65,5.8a14.43,14.43,0,0,1,12.11-5.8c6.31,0,13.83,2.7,13.83,15.61Z"/><path class="cls-2" d="M259.21,855.86c2.55,3.71,6.25,5.58,11.11,5.58a12.83,12.83,0,0,0,11.18-5.58q3.31-4.77,3.31-12.57t-3.31-12.58a12.81,12.81,0,0,0-11.18-5.58q-7.36,0-11.11,5.58-3.31,4.83-3.31,12.58t3.31,12.57m-1.69-26.71q4.41-6.1,12.8-6.1t12.88,6.1q4,5.36,4,14.14t-4,14.2q-4.57,6-12.88,6t-12.8-6q-4-5.43-4-14.2t4-14.14"/><path class="cls-2" d="M270.32,826.91c-4.32,0-7.49,1.57-9.66,4.8-2,2.91-3,6.8-3,11.58s1,8.69,3,11.55h0c2.22,3.24,5.38,4.82,9.67,4.82s7.48-1.58,9.75-4.82c2-2.86,3-6.75,3-11.55s-1-8.67-3-11.57c-2.26-3.24-5.45-4.81-9.74-4.81m0,38.31c-6.15,0-10.93-2.24-14.21-6.66-2.86-3.93-4.32-9.06-4.32-15.27s1.46-11.33,4.31-15.2c3.29-4.53,8.07-6.82,14.22-6.82s11,2.29,14.28,6.82c2.87,3.86,4.33,9,4.33,15.2s-1.46,11.34-4.33,15.25c-3.39,4.44-8.19,6.68-14.28,6.68"/><path class="cls-2" d="M314.46,861.29a13.49,13.49,0,0,0,7.65-2,7.55,7.55,0,0,0,3.61-6.77c0-3.57-2.53-6.06-7.58-7.44l-.7-.22a9.48,9.48,0,0,0-1.28-.3c-6.23-1.64-10.26-3.17-12.07-4.62a8.07,8.07,0,0,1-3.09-6.69,8.75,8.75,0,0,1,4.27-7.81,15.85,15.85,0,0,1,8.82-2.38,13.34,13.34,0,0,1,8.76,2.83,12,12,0,0,1,4.12,8.25h-2.28q-1.17-9-10.89-9a12.75,12.75,0,0,0-6.92,1.79,6.73,6.73,0,0,0-3.45,6c0,3.88,3.9,6.79,11.69,8.78a1.45,1.45,0,0,0,.74.22c4,1,6.82,2.11,8.38,3.2a8.41,8.41,0,0,1,3.9,7.44,9.59,9.59,0,0,1-4.34,8.27,16.29,16.29,0,0,1-9.26,2.59,15.77,15.77,0,0,1-10-3A12.86,12.86,0,0,1,300,851h2.28q1.83,10.28,12.21,10.27"/><path class="cls-2" d="M314.54,865.22a17.54,17.54,0,0,1-11.09-3.42,14.64,14.64,0,0,1-5.23-10.63l-.17-1.93h5.66l.27,1.47c1.07,6,4.41,8.8,10.48,8.8a12,12,0,0,0,6.69-1.71,5.76,5.76,0,0,0,2.81-5.29c0-1,0-4-6.28-5.73l-.52-.17a8.29,8.29,0,0,0-1.32-.31c-6.66-1.75-10.81-3.37-12.84-5a9.82,9.82,0,0,1-3.75-8.09,10.52,10.52,0,0,1,5.07-9.31,17.74,17.74,0,0,1,9.78-2.66,15.1,15.1,0,0,1,9.85,3.22,13.9,13.9,0,0,1,4.77,9.44l.22,2h-5.79l-.19-1.55c-.67-5.09-3.58-7.45-9.16-7.45a11.14,11.14,0,0,0-6,1.52,5,5,0,0,0-2.62,4.51c0,3.65,5.64,5.85,10.37,7.06l.75.22c4.26,1.11,7.19,2.24,8.94,3.46a10.11,10.11,0,0,1,4.66,8.9,11.35,11.35,0,0,1-5.09,9.72,18.15,18.15,0,0,1-10.27,2.92"/><path class="cls-2" d="M367.21,811.36c.94-1.78,3-2.68,6-2.68l6.77-.07v2h-6.41q-3.45,0-4.56,2.23a15.49,15.49,0,0,0-.66,5.51v5.5h7.51V826h-7.51v36.46h-2.28v-44q0-5.07,1.1-7.08"/><path class="cls-2" d="M370.15,864.25h-5.79V818.43c0-3.69.42-6.28,1.31-7.91,1.26-2.39,3.81-3.61,7.57-3.61l8.53-.09v5.58h-8.15c-2.38,0-2.83.91-3,1.24a14.38,14.38,0,0,0-.47,4.72v3.73h7.5v5.71h-7.5Z"/><path class="cls-2" d="M392.89,855.86c2.55,3.71,6.26,5.58,11.11,5.58a12.86,12.86,0,0,0,11.19-5.58q3.31-4.77,3.31-12.57t-3.31-12.58A12.84,12.84,0,0,0,404,825.13c-4.91,0-8.6,1.86-11.11,5.58q-3.31,4.83-3.31,12.58t3.31,12.57m-1.69-26.71q4.41-6.1,12.8-6.1c5.6,0,9.88,2,12.88,6.1q4,5.36,4,14.14t-4,14.2q-4.58,6-12.88,6t-12.8-6q-4-5.43-4-14.2t4-14.14"/><path class="cls-2" d="M404,826.91c-4.32,0-7.49,1.57-9.65,4.8-2,2.91-3,6.8-3,11.58s1,8.69,3,11.55h0c2.23,3.24,5.38,4.82,9.67,4.82s7.48-1.58,9.75-4.82c2-2.86,3-6.75,3-11.55s-1-8.67-3-11.57c-2.26-3.24-5.45-4.81-9.74-4.81m0,38.31c-6.15,0-10.93-2.24-14.2-6.66-2.87-3.93-4.33-9.06-4.33-15.27s1.46-11.33,4.33-15.2c3.27-4.53,8.05-6.82,14.2-6.82s11,2.29,14.28,6.82c2.87,3.86,4.33,9,4.33,15.2s-1.46,11.34-4.33,15.25c-3.39,4.44-8.19,6.68-14.28,6.68"/><path class="cls-2" d="M435.05,823.86h2.35v6.4q2.94-6.32,12.66-6.24l-1.47,2.08a10.09,10.09,0,0,0-9.06,4.24,9.68,9.68,0,0,0-2.13,6.47v25.66h-2.35Z"/><path class="cls-2" d="M439.16,864.25H433.3V822.09h5.86v3.16c2.61-2,6.18-3,10.91-3l3.38,0-4,5.6h-.9a9.87,9.87,0,0,0-3.28.34,10.11,10.11,0,0,0-4.46,3.3,7.9,7.9,0,0,0-1.69,5.3Z"/><path class="cls-2" d="M460.29,823.86h2.35v6.33A12.56,12.56,0,0,1,474.56,823q9.27,0,11.33,7.89,4-7.87,12.44-7.89,12.06,0,12.06,13.85v25.58H508V839.26c0-4.31-.36-7.33-1.1-9.07q-2.06-5-8.68-5-6.84,0-9.64,5.06-2.13,3.94-2.13,11.38v20.83H484.2V839.26q0-6.46-1.1-9.07-2.07-5-8.68-5-9.8,0-11.41,9.83c-.1.74-.19,1.67-.26,2.78s-.11,2.39-.11,3.83v20.83h-2.35Z"/><path class="cls-2" d="M512.14,864.25h-5.86v-25c0-5.06-.52-7.35-1-8.38-.7-1.69-2.18-3.91-7.07-3.91-3.92,0-6.56,1.35-8.1,4.15-1.27,2.34-1.92,5.88-1.92,10.51v22.61h-5.78v-25c0-5.06-.53-7.35-1-8.38-.69-1.69-2.18-3.91-7.07-3.91-5.66,0-8.73,2.65-9.67,8.33-.09.66-.16,1.55-.24,2.62s-.1,2.33-.1,3.71v22.61h-5.87V822.09h5.87V825a14.36,14.36,0,0,1,10.16-3.67c6.45,0,9.87,2.7,11.65,5.8a14.43,14.43,0,0,1,12.12-5.8c6.3,0,13.81,2.7,13.81,15.61Z"/><path class="cls-2" d="M530.25,855.85c2.56,3.73,6.28,5.59,11.19,5.59s8.6-1.86,11.11-5.59q3.32-4.76,3.31-12.57c0-5.15-1.1-9.35-3.31-12.57q-3.76-5.58-11.11-5.58t-11.11,5.58c-2.26,3.17-3.39,7.37-3.39,12.57s1.1,9.4,3.31,12.57m11.19,7.59c-5.55,0-9.83-2-12.88-5.94q-4-5.44-4-14.22t4-14.21q4.41-6,12.88-6,10.65,0,14.42,9.66v-8.85h2.28v38.62h-2.28v-8.33q-3.69,9.3-14.42,9.29"/><path class="cls-2" d="M541.44,826.91c-4.33,0-7.49,1.57-9.67,4.8-2,2.89-3.08,6.77-3.08,11.58s1,8.69,3,11.55h0c2.22,3.24,5.4,4.82,9.74,4.82s7.49-1.57,9.66-4.8c2-2.88,3-6.77,3-11.57s-1-8.67-3-11.57c-2.18-3.24-5.35-4.81-9.67-4.81m0,38.31c-6.09,0-10.89-2.24-14.27-6.64-2.88-4-4.34-9.08-4.34-15.29s1.46-11.41,4.32-15.28c3.28-4.46,8.09-6.74,14.29-6.74,5.4,0,9.63,1.72,12.66,5.1v-4.28h5.79v42.16H554.1v-3.92c-3,3.25-7.25,4.89-12.66,4.89"/><path class="cls-2" d="M603.24,855.85q3.82,5.6,11.18,5.59t11.11-5.59q3.32-4.76,3.31-12.57c0-5.15-1.1-9.35-3.31-12.57q-3.75-5.58-11.11-5.58c-4.91,0-8.6,1.86-11.11,5.58-2.26,3.17-3.38,7.37-3.38,12.57s1.1,9.4,3.31,12.57m11.18,7.59q-8.31,0-12.88-5.94-4-5.44-4-14.22t4-14.21q4.43-6,12.88-6,10.67,0,14.42,9.66v-8.85h2.28v38.62h-2.28v-8.33q-3.68,9.3-14.42,9.29"/><path class="cls-2" d="M614.42,826.91c-4.32,0-7.49,1.57-9.66,4.8-2,2.89-3.08,6.77-3.08,11.58s1,8.69,3,11.55h0c2.22,3.24,5.41,4.82,9.74,4.82s7.49-1.57,9.66-4.8c2-2.88,3-6.77,3-11.57s-1-8.67-3-11.57c-2.18-3.24-5.35-4.81-9.67-4.81m0,38.31c-6.09,0-10.89-2.24-14.26-6.64-2.89-4-4.35-9.08-4.35-15.29s1.46-11.41,4.33-15.28c3.27-4.46,8.08-6.74,14.28-6.74,5.4,0,9.64,1.72,12.67,5.1v-4.28h5.79v42.16h-5.79v-3.92c-3,3.25-7.25,4.89-12.67,4.89"/><polygon class="cls-2" points="672.99 813.3 672.99 823.87 680.63 823.87 680.63 825.95 672.99 825.95 672.99 862.48 670.63 862.48 670.63 813.3 672.99 813.3"/><polygon class="cls-2" points="674.74 864.25 668.88 864.25 668.88 811.53 674.74 811.53 674.74 822.09 682.39 822.09 682.39 827.72 674.74 827.72 674.74 864.25"/><path class="cls-2" d="M720,862.48h-2.28v-6q-3.62,7-12.88,7-13.1,0-13.09-13.76V823.87H694v25.07c0,4.16.75,7.19,2.28,9.08,1.66,2.22,4.49,3.34,8.46,3.34q10.82,0,12.58-9.82c.1-.74.19-1.67.26-2.79s.11-2.44.11-4v-20.9H720Z"/><path class="cls-2" d="M704.84,865.22c-9.71,0-14.85-5.38-14.85-15.54V822.09h5.79v26.85c0,3.72.64,6.4,1.89,7.95q2,2.7,7.1,2.7c6.38,0,9.83-2.66,10.85-8.37.09-.62.17-1.52.24-2.59s.1-2.37.1-3.86V822.09h5.8v42.16H716v-2.68c-2.76,2.42-6.48,3.65-11.12,3.65"/><path class="cls-2" d="M749.21,861.29a13.52,13.52,0,0,0,7.65-2,7.55,7.55,0,0,0,3.6-6.77c0-3.57-2.52-6.06-7.57-7.44l-.7-.22a10.08,10.08,0,0,0-1.29-.3c-6.23-1.64-10.26-3.17-12.07-4.62a8.09,8.09,0,0,1-3.08-6.69,8.76,8.76,0,0,1,4.26-7.81,15.88,15.88,0,0,1,8.83-2.38,13.33,13.33,0,0,1,8.75,2.83,12,12,0,0,1,4.12,8.25h-2.27q-1.19-9-10.89-9a12.75,12.75,0,0,0-6.92,1.79,6.72,6.72,0,0,0-3.46,6c0,3.88,3.9,6.79,11.7,8.78a1.4,1.4,0,0,0,.73.22q6,1.56,8.39,3.2a8.43,8.43,0,0,1,3.9,7.44,9.61,9.61,0,0,1-4.34,8.27,16.34,16.34,0,0,1-9.27,2.59,15.79,15.79,0,0,1-10-3,12.9,12.9,0,0,1-4.56-9.38H737q1.83,10.28,12.21,10.27"/><path class="cls-2" d="M749.28,865.22a17.52,17.52,0,0,1-11.08-3.42A14.61,14.61,0,0,1,733,851.17l-.17-1.93h5.66l.26,1.47c1.08,6,4.41,8.8,10.49,8.8a12,12,0,0,0,6.69-1.71,5.76,5.76,0,0,0,2.81-5.29c0-1,0-4-6.28-5.73l-.53-.17a8,8,0,0,0-1.32-.31c-6.65-1.75-10.81-3.37-12.83-5a9.8,9.8,0,0,1-3.76-8.09,10.51,10.51,0,0,1,5.08-9.31,17.68,17.68,0,0,1,9.77-2.66,15.13,15.13,0,0,1,9.86,3.22,13.94,13.94,0,0,1,4.76,9.44l.22,2h-5.79l-.19-1.55c-.67-5.09-3.58-7.45-9.15-7.45a11.1,11.1,0,0,0-6,1.52,5,5,0,0,0-2.63,4.51c0,3.65,5.65,5.85,10.38,7.06l.74.22c4.27,1.11,7.19,2.24,8.94,3.46a10.12,10.12,0,0,1,4.67,8.9,11.34,11.34,0,0,1-5.1,9.72,18.12,18.12,0,0,1-10.27,2.92"/><path class="cls-2" d="M802.62,823.87h2.29v38.61h-2.29Zm1.1-15.48c1.09,0,1.62,1.17,1.62,3.5s-.53,3.57-1.62,3.57-1.54-1.2-1.54-3.57.51-3.5,1.54-3.5"/><path class="cls-2" d="M803.31,813.88m.42,3.35c-1.51,0-3.3-.92-3.3-5.34,0-4.58,2.06-5.27,3.3-5.27s3.36.69,3.36,5.27-2.11,5.34-3.36,5.34m2.92,47h-5.78V822.09h5.78Z"/><path class="cls-2" d="M847.43,830.71q-3.76-5.58-11.11-5.58t-11.11,5.58q-3.39,4.77-3.39,12.58t3.31,12.57c2.56,3.72,6.28,5.58,11.19,5.58s8.6-1.86,11.11-5.58q3.3-4.77,3.3-12.57t-3.3-12.58M853,862.48h-2.29v-8.56q-3.74,9.52-14.41,9.52-8.48,0-12.88-6-4-5.36-4-14.2t4-14.14q4.48-6.1,12.88-6.1,10.89,0,14.41,9.3V809.06H853Z"/><path class="cls-2" d="M836.32,826.91c-4.33,0-7.49,1.57-9.66,4.8-2,2.89-3.08,6.77-3.08,11.58s1,8.69,3,11.55c2.23,3.24,5.42,4.82,9.75,4.82s7.49-1.57,9.66-4.8c2-2.88,3-6.77,3-11.57s-1-8.67-3-11.57h0c-2.17-3.23-5.34-4.8-9.66-4.8m0,38.31c-6.2,0-11-2.24-14.28-6.66-2.87-3.87-4.33-9-4.33-15.27S819.17,832,822,828.08c3.32-4.52,8.13-6.81,14.28-6.81,5.44,0,9.68,1.62,12.66,4.82V807.28h5.79v57H849v-4.06c-3,3.34-7.26,5-12.66,5"/><path class="cls-2" d="M896.94,841.28a18.65,18.65,0,0,0-3.16-11.16,11.46,11.46,0,0,0-9.94-5A12.4,12.4,0,0,0,873.47,830a20.5,20.5,0,0,0-3.75,11.32ZM883.4,863.44q-8.16,0-12.44-6.1-3.74-5.43-3.74-14.06t3.74-14q4.29-6.24,12.44-6.24c5.35,0,9.42,1.85,12.22,5.58q3.82,5,3.83,13.39v1.41H869.64v.6a20.32,20.32,0,0,0,3.31,11.9,12,12,0,0,0,10.45,5.51q9.27,0,12.58-8.78l1.92,1a14.63,14.63,0,0,1-4.64,6.47,15.37,15.37,0,0,1-9.86,3.27"/><path class="cls-2" d="M871.65,839.5h23.47a15.9,15.9,0,0,0-2.77-8.34,9.71,9.71,0,0,0-8.51-4.25,10.67,10.67,0,0,0-9,4.15,17.8,17.8,0,0,0-3.2,8.44m11.75,25.72c-6,0-10.68-2.3-13.87-6.85-2.69-3.92-4.07-9-4.07-15.08s1.38-11.16,4.07-15c3.17-4.65,7.84-7,13.87-7s10.48,2.12,13.62,6.28c2.76,3.62,4.18,8.49,4.18,14.47v3.19H871.42a18.07,18.07,0,0,0,3,9.69,10.21,10.21,0,0,0,9,4.76c5.43,0,9-2.5,10.94-7.63l.71-1.9,5,2.74-.54,1.46a16.5,16.5,0,0,1-5.19,7.23,17.12,17.12,0,0,1-11,3.66"/><path class="cls-2" d="M917.47,855.85q3.82,5.6,11.18,5.59t11.11-5.59q3.32-4.76,3.31-12.57c0-5.15-1.1-9.35-3.31-12.57q-3.75-5.58-11.11-5.58t-11.11,5.58c-2.26,3.17-3.38,7.37-3.38,12.57s1.1,9.4,3.31,12.57m11.18,7.59q-8.31,0-12.88-5.94-4-5.44-4-14.22t4-14.21q4.43-6,12.88-6,10.67,0,14.42,9.66v-8.85h2.29v38.62h-2.29v-8.33q-3.68,9.3-14.42,9.29"/><path class="cls-2" d="M928.65,826.91c-4.32,0-7.49,1.57-9.66,4.8-2,2.89-3.08,6.77-3.08,11.58s1,8.69,3,11.55h0c2.22,3.24,5.41,4.82,9.74,4.82s7.49-1.57,9.67-4.8c2-2.88,3-6.77,3-11.57s-1-8.67-3-11.57c-2.18-3.24-5.34-4.81-9.67-4.81m0,38.31c-6.09,0-10.89-2.24-14.26-6.64-2.89-4-4.34-9.08-4.34-15.29s1.45-11.41,4.32-15.28c3.27-4.46,8.08-6.74,14.28-6.74,5.4,0,9.64,1.72,12.67,5.1v-4.28h5.79v42.16h-5.79v-3.92c-3,3.25-7.25,4.89-12.67,4.89"/><path class="cls-2" d="M974.56,861.29a13.52,13.52,0,0,0,7.65-2,7.55,7.55,0,0,0,3.6-6.77c0-3.57-2.52-6.06-7.57-7.44l-.7-.22a9.68,9.68,0,0,0-1.29-.3c-6.22-1.64-10.25-3.17-12.06-4.62a8.07,8.07,0,0,1-3.09-6.69,8.76,8.76,0,0,1,4.26-7.81,15.9,15.9,0,0,1,8.83-2.38,13.36,13.36,0,0,1,8.76,2.83,12,12,0,0,1,4.12,8.25h-2.28q-1.18-9-10.89-9a12.75,12.75,0,0,0-6.92,1.79,6.73,6.73,0,0,0-3.45,6c0,3.88,3.9,6.79,11.69,8.78a1.45,1.45,0,0,0,.74.22q6,1.56,8.39,3.2a8.42,8.42,0,0,1,3.89,7.44,9.59,9.59,0,0,1-4.34,8.27,16.31,16.31,0,0,1-9.26,2.59,15.75,15.75,0,0,1-10-3,12.86,12.86,0,0,1-4.56-9.38h2.28q1.83,10.28,12.21,10.27"/><path class="cls-2" d="M974.63,865.22a17.52,17.52,0,0,1-11.08-3.42,14.61,14.61,0,0,1-5.23-10.63l-.17-1.93h5.66l.26,1.47c1.08,6,4.41,8.8,10.49,8.8a12,12,0,0,0,6.69-1.71,5.76,5.76,0,0,0,2.81-5.29c0-1,0-4-6.28-5.73l-.52-.17a8.29,8.29,0,0,0-1.32-.31c-6.66-1.75-10.82-3.37-12.84-5a9.83,9.83,0,0,1-3.76-8.09,10.51,10.51,0,0,1,5.08-9.31,17.73,17.73,0,0,1,9.77-2.66,15.11,15.11,0,0,1,9.86,3.22,13.9,13.9,0,0,1,4.77,9.44l.21,2h-5.78l-.2-1.55c-.67-5.09-3.58-7.45-9.15-7.45a11.12,11.12,0,0,0-6,1.52,5,5,0,0,0-2.62,4.51c0,3.65,5.64,5.85,10.37,7.06l.74.22c4.27,1.11,7.19,2.24,9,3.46a10.11,10.11,0,0,1,4.66,8.9,11.35,11.35,0,0,1-5.09,9.72,18.16,18.16,0,0,1-10.28,2.92"/><path class="cls-3" d="M628.89,261.48c-.15,19.43-6.19,36.52-14.51,51.08A84,84,0,0,0,548,292c-46.33,5.94-79.23,48.88-73.36,95.68a85.73,85.73,0,0,0,17,41.51c-.11-.13-.27-.26-.39-.39s-31.6-30.33-37.67-89.07c-2.79-27.05,2.47-60.61,14-99.14,20.71-14.75,44.09-21.06,70.91-24.5a158.17,158.17,0,0,1,81.26,11c9.18,21.29,9.18,34.44,9.18,34.44"/><path class="cls-3" d="M593.84,535.8c-3.12.41-6.21.8-9.24,1.1l-.19,0a227.13,227.13,0,0,1-55.26-.68c-38.7-5.47-65.76-21.59-84.49-39.93,12.36-2.6,24.86-9.05,36-13.8q26.81-11.46,53.07-24.34c13.64,4.42,28.53,4.57,45.09-1.08a258.43,258.43,0,0,0,47.35-21.73c23.67-13.76,61.45-18.51,68.82,16.1,1.7,8,.49,17-4.86,26-19,32.16-60.41,53.51-96.31,58.34"/><path class="cls-2" d="M533.75,458.18Q507.52,471,480.68,482.51c-11.15,4.76-23.66,11.21-36,13.8-32.91-32.18-40.25-71.15-40.25-71.15-.23-1-.47-2-.69-3q-2.69-12.27-4-23.57c-.15-1.22-.26-2.44-.41-3.66-.51-5.21-.84-10.31-1-15.22,0-1,0-2,0-3,0-1.67,0-3.35.06-5,1.15-91.35,66.94-129.81,69.22-131.09-.35,1.23-.73,2.46-1.05,3.69-19.4,67.54-9.54,117.07,3,147.71,10,24.39,21.68,36.81,21.68,36.81s.28.27.39.4c12.92,13.61,26.75,24,42.16,29"/><path class="cls-4" d="M648.32,389.58c-14.82,14.31-33.37,25.56-52.44,36.14q-30.61,17-62.14,32.46Q507.51,471,480.68,482.52c-11.16,4.75-23.65,11.2-36,13.8a54.47,54.47,0,0,1-6.63,1,35.19,35.19,0,0,1-9.64-.56c-14.21-2.76-28-13.47-36.24-24.31-5.35-7.08-8.81-16.08-7.65-24.92,1.59-11.84,9.45-19.58,19.22-25.4,10.77-6.42,23.88-10.53,33.54-15.17q16-7.72,32.25-15,11-4.91,22-9.58,15.93-6.79,32.07-13.15c19.79-7.77,39.93-15.15,57.94-26.53,31-19.6,44.21-45.4,44.5-81.82,0,0,.11-13.54-6.29-33.85.36.14.72.29,1,.44,37.58,18.92,61.82,55,58.27,98.62-2.2,27.27-14,47.32-30.71,63.47"/></svg>