<svg
    xmlns="http://www.w3.org/2000/svg"
    viewBox="0 0 866.48 900">
    <defs>
        <style>
            .a{
                fill:#185a9c;
            }
            .b{
                fill:#3d7ec1;
            }
            .c{
                fill:#2e75ba;
            }
        </style>
    </defs>

    <title>logo-blue</title>

    <path
        class="a"
        d="
            M2964.3,
            219.926c-.424,
            54.048-17.208,
            101.6-40.371,
            142.088-49.057-43.314-115.37-66.124-184.742-57.226-128.9,
            16.525-220.429,
            135.991-204.092,
            266.191a238.474,
            238.474,
            0,
            0,
            0,
            47.221,
            115.51c-.306-.376-.753-.73-1.083-1.106,
            0,
            0-87.921-84.367-104.8-247.782-7.768-75.258,
            6.874-168.641,
            38.983-275.818,
            57.6-41.054,
            122.667-58.615,
            197.265-68.173A439.891,
            439.891,
            0,
            0,
            1,
            2938.757,
            124.1c25.541,
            59.226,
            25.541,
            95.831,
            25.541,
            95.831"
        transform="translate(-2283.768 -90)"
    />
    <path
        class="a"
        d="
            M2866.8,
            983.117c-8.687,
            1.13-17.279,
            2.213-25.706,
            3.06l-.541.072c-57.414,
            5.861-108.5,
            4.566-153.74-1.884-107.672-15.231-182.953-60.074-235.047-111.109,
            34.392-7.227,
            69.16-25.164,
            100.21-38.393q74.574-31.851,
            147.643-67.7c37.946,
            12.287,
            79.376,
            12.711,
            125.444-3.013a717.371,
            717.371,
            0,
            0,
            0,
            131.73-60.452c65.842-38.275,
            170.971-51.5,
            191.451,
            44.8,
            4.755,
            22.363,
            1.365,
            47.245-13.512,
            72.315-52.965,
            89.452-168.052,
            148.843-267.932,
            162.308"
        transform="translate(-2283.768 -90)"
    />
    <path
        class="b"
        d="
            M2699.607,
            767.154q-72.986,
            35.735-147.643,
            67.7c-31.026,
            13.23-65.818,
            31.191-100.21,
            38.394C2360.207,
            783.7,
            2339.775,
            675.3,
            2339.775,
            675.3c-.636-2.825-1.3-5.65-1.907-8.451q-7.486-34.11-11.182-65.559c-.423-3.389-.729-6.8-1.153-10.192-1.413-14.478-2.331-28.673-2.731-42.349-.094-2.895-.023-5.627-.094-8.38-.047-4.661-.071-9.323.141-13.889,
            3.2-254.162,
            186.249-361.151,
            192.581-364.7-.965,
            3.413-2.024,
            6.849-2.919,
            10.263-53.954,
            187.9-26.53,
            325.7,
            8.4,
            410.938,
            27.777,
            67.866,
            60.309,
            102.422,
            60.309,
            102.422.306.354.8.73,
            1.107,
            1.107,
            35.922,
            37.852,
            74.41,
            66.807,
            117.276,
            80.648"
        transform="translate(-2283.768 -90)"
    />
    <path
        class="c"
        d="
            M3018.353,
            576.3c-41.219,
            39.807-92.842,
            71.115-145.878,
            100.563q-85.2,
            47.281-172.877,
            90.3-72.987,
            35.735-147.62,
            67.7c-31.049,
            13.23-65.818,
            31.167-100.21,
            38.394a152.727,
            152.727,
            0,
            0,
            1-18.455,
            2.8A98.945,
            98.945,
            0,
            0,
            1,
            2406.5,
            874.5c-39.547-7.7-77.965-37.476-100.822-67.655-14.9-19.7-24.529-44.726-21.28-69.324,
            4.4-32.933,
            26.271-54.473,
            53.459-70.668,
            29.967-17.867,
            66.43-29.283,
            93.313-42.207q44.6-21.468,
            89.734-41.666,
            30.472-13.629,
            61.157-26.647,
            44.351-18.925,
            89.217-36.581c55.083-21.634,
            111.109-42.161,
            161.2-73.822,
            86.321-54.542,
            123-126.316,
            123.82-227.632,
            0,
            0,
            .306-37.664-17.513-94.183,
            1.012.4,
            2,
            .824,
            2.895,
            1.248,
            104.541,
            52.611,
            171.983,152.986,
            162.12,
            274.358-6.12,
            75.87-39.076,
            131.659-85.45,
            176.573"
        transform="translate(-2283.768 -90)"
    />
</svg>
