<svg xmlns="http://www.w3.org/2000/svg" viewBox="0 0 900 650.435"><defs><style>.a{fill:#1b213f;}.b{fill:#3d7ec1;}.c{fill:#185a9c;}.d{fill:#2e75ba;}</style></defs><title>logo-factura</title><polygon class="a" points="25.826 524.14 68.775 524.14 68.775 543 3.277 543 3.277 448.006 67.168 448.006 67.168 466.595 25.826 466.595 25.826 485.87 63.673 485.87 63.673 504.189 25.826 504.189 25.826 524.14"/><polygon class="a" points="162.737 448.005 183.273 448.005 183.273 543.008 160.317 543.008 160.317 484.515 138.581 515.187 128.249 515.187 106.504 484.515 106.504 543.008 83.684 543.008 83.684 448.005 104.084 448.005 133.343 488.315 162.737 448.005"/><path class="a" d="M327.38,711.643c9.789,0,15.568-5.424,15.568-14.519,0-9.232-5.779-14.52-15.568-14.52H315.026v29.039Zm2.411-48.855c22.685,0,36.375,13.03,36.375,34.065,0,20.628-13.69,34.065-36.375,34.065H315.433v26.873H292.342v-95Z" transform="translate(-90 -214.783)"/><path class="a" d="M411.135,686.535l-14.223,38.947H425.1Zm24.428,71.252-5.636-15.475H391.945l-5.508,15.475H362.28l36.375-95h24.7l35.969,95Z" transform="translate(-90 -214.783)"/><path class="a" d="M510.607,738.246c15.569,0,26.568-11.533,26.568-27.956s-11-27.964-26.568-27.964c-15.442,0-26.441,11.541-26.441,27.964s11,27.956,26.441,27.956m36.637,6.65,13.022,18.59-19.2,13.436-13.419-19.951a57.41,57.41,0,0,1-17.041,2.58c-28.861,0-50.065-20.764-50.065-49.261s21.2-49.27,50.065-49.27c29.124,0,50.057,20.773,50.057,49.27,0,13.843-4.967,25.917-13.42,34.606" transform="translate(-90 -214.783)"/><path class="a" d="M610.337,711.643c9.8,0,15.577-5.424,15.577-14.519,0-9.232-5.779-14.52-15.577-14.52H597.992v29.039Zm2.42-48.855c22.684,0,36.375,13.03,36.375,34.065,0,20.628-13.691,34.065-36.375,34.065H598.4v26.873H575.307v-95Z" transform="translate(-90 -214.783)"/><polygon class="a" points="594.44 521.427 634.166 521.427 634.166 543.004 571.358 543.004 571.358 448.01 594.44 448.01 594.44 521.427"/><path class="a" d="M778.531,686.535l-14.223,38.947h28.184Zm24.428,71.252-5.636-15.475H759.341l-5.508,15.475H729.676l36.375-95h24.7l35.969,95Z" transform="translate(-90 -214.783)"/><path class="a" d="M829.952,746.25l9.934-16.829c9.256,6.515,18.521,9.637,28.717,9.637,9.4,0,14.765-2.986,14.765-8.275,0-5.026-4.967-8.148-19.055-12.082-20.67-5.568-30.469-14.385-30.469-29.86,0-16.009,12.752-27.279,34.488-27.279a59.725,59.725,0,0,1,35.842,11.676l-10.069,16.288a43.132,43.132,0,0,0-24.96-8.419c-7.649,0-12.489,2.852-12.489,7.463s3.892,7.471,17.853,11.541c21.881,6.109,32.077,15.332,32.077,30.537,0,16.965-14.9,28.362-37.441,28.362-14.494,0-28.591-4.612-39.193-12.76" transform="translate(-90 -214.783)"/><polygon class="a" points="896.725 448.005 896.725 469.446 869.344 469.446 869.344 543.008 846.262 543.008 846.262 469.446 819.017 469.446 819.017 448.005 896.725 448.005"/><path class="b" d="M119.715,830.714q-3.758-5.583-11.11-5.584T97.5,830.714q-3.389,4.759-3.385,12.574t3.309,12.573q3.832,5.573,11.185,5.576t11.11-5.576q3.312-4.772,3.308-12.573,0-7.743-3.308-12.574m5.593,31.764h-2.285v-8.554q-3.744,9.518-14.418,9.518-8.465,0-12.878-5.948-3.972-5.355-3.968-14.206,0-8.783,3.968-14.139,4.494-6.105,12.878-6.1,10.89,0,14.418,9.3V809.062h2.285Z" transform="translate(-90 -214.783)"/><path class="b" d="M108.606,826.905c-4.323,0-7.488,1.574-9.662,4.806-2.048,2.885-3.08,6.769-3.08,11.575s1.007,8.7,2.995,11.55c2.225,3.249,5.415,4.823,9.747,4.823s7.488-1.566,9.663-4.8c2-2.877,3-6.769,3-11.575,0-4.772-1.007-8.664-3-11.566l-.008-.009c-2.175-3.232-5.339-4.806-9.663-4.806m0,38.312c-6.193,0-11-2.242-14.282-6.658C91.455,854.692,90,849.547,90,843.286c0-6.219,1.455-11.338,4.324-15.2,3.325-4.518,8.131-6.811,14.282-6.811,5.441,0,9.68,1.624,12.667,4.823v-18.81h5.787v56.97h-5.787v-4.062c-3.029,3.343-7.269,5.026-12.667,5.026" transform="translate(-90 -214.783)"/><path class="b" d="M145.39,855.854q3.833,5.584,11.186,5.585t11.109-5.585q3.312-4.758,3.308-12.573,0-7.729-3.308-12.573-3.756-5.572-11.109-5.576t-11.11,5.576q-3.389,4.76-3.385,12.573t3.309,12.573m11.186,7.59q-8.315,0-12.879-5.948-3.972-5.433-3.968-14.215,0-8.845,3.968-14.206,4.417-6.03,12.879-6.025,10.66,0,14.417,9.663v-8.85h2.285V862.48h-2.285v-8.335q-3.68,9.3-14.417,9.3" transform="translate(-90 -214.783)"/><path class="b" d="M156.576,826.905c-4.324,0-7.489,1.574-9.655,4.806-2.056,2.885-3.088,6.769-3.088,11.575s1.007,8.7,3,11.55l.009.008c2.216,3.241,5.406,4.815,9.739,4.815s7.488-1.566,9.662-4.8c2-2.877,3-6.769,3-11.575,0-4.772-1.007-8.664-2.995-11.566-2.183-3.241-5.348-4.815-9.671-4.815m0,38.312c-6.093,0-10.89-2.233-14.266-6.641-2.885-3.943-4.341-9.079-4.341-15.29,0-6.27,1.456-11.406,4.324-15.281,3.274-4.459,8.08-6.735,14.283-6.735,5.4,0,9.637,1.717,12.666,5.1v-4.281h5.787v42.162h-5.787v-3.926c-3.012,3.249-7.251,4.89-12.666,4.89" transform="translate(-90 -214.783)"/><path class="b" d="M189.388,823.865h2.352v6.32a12.569,12.569,0,0,1,11.922-7.141q9.266,0,11.33,7.886,3.972-7.881,12.438-7.886,12.057,0,12.066,13.843v25.587h-2.361v-23.21q0-6.473-1.1-9.079-2.056-4.987-8.681-4.983-6.842,0-9.638,5.06-2.132,3.947-2.132,11.38v20.832H213.3v-23.21q0-6.473-1.1-9.079-2.07-4.987-8.682-4.983-9.785,0-11.4,9.823c-.1.745-.186,1.676-.263,2.784-.067,1.125-.11,2.395-.11,3.833v20.832h-2.352Z" transform="translate(-90 -214.783)"/><path class="b" d="M241.248,864.251h-5.864V839.265c0-5.051-.524-7.344-.964-8.376-.694-1.692-2.175-3.91-7.066-3.91-3.917,0-6.565,1.354-8.105,4.155-1.27,2.335-1.913,5.872-1.913,10.509v22.608h-5.787V839.265c0-5.051-.525-7.344-.965-8.376-.693-1.692-2.183-3.91-7.073-3.91-5.661,0-8.732,2.649-9.671,8.335-.085.66-.17,1.548-.237,2.614-.068,1.084-.1,2.327-.1,3.715v22.608h-5.864V822.089H193.5v2.86a14.391,14.391,0,0,1,10.162-3.672c6.448,0,9.857,2.7,11.651,5.8a14.426,14.426,0,0,1,12.108-5.8c6.312,0,13.826,2.707,13.826,15.611Z" transform="translate(-90 -214.783)"/><path class="b" d="M259.209,855.86q3.82,5.573,11.11,5.576a12.836,12.836,0,0,0,11.186-5.576q3.312-4.772,3.308-12.573,0-7.742-3.308-12.573a12.824,12.824,0,0,0-11.186-5.585q-7.362,0-11.11,5.585-3.312,4.822-3.308,12.573,0,7.806,3.308,12.573m-1.692-26.712q4.417-6.105,12.8-6.1t12.878,6.1q3.972,5.356,3.968,14.139T283.2,857.493q-4.569,5.953-12.878,5.949-8.39,0-12.8-5.949-3.972-5.432-3.977-14.206t3.977-14.139" transform="translate(-90 -214.783)"/><path class="b" d="M270.32,826.905c-4.324,0-7.488,1.574-9.663,4.806-2,2.911-3,6.8-3,11.575,0,4.806,1.007,8.7,2.987,11.55l.009.008c2.225,3.241,5.381,4.815,9.671,4.815s7.48-1.583,9.747-4.823c1.989-2.852,3-6.744,3-11.55,0-4.772-1.015-8.664-3-11.566-2.259-3.241-5.449-4.815-9.739-4.815m0,38.312c-6.152,0-10.932-2.242-14.207-6.658-2.868-3.926-4.323-9.062-4.323-15.273s1.455-11.33,4.315-15.2c3.283-4.527,8.063-6.82,14.215-6.82s10.957,2.293,14.282,6.82c2.869,3.858,4.324,8.977,4.324,15.2s-1.455,11.347-4.324,15.256c-3.393,4.442-8.19,6.675-14.282,6.675" transform="translate(-90 -214.783)"/><path class="b" d="M314.463,861.286a13.53,13.53,0,0,0,7.649-2.006,7.54,7.54,0,0,0,3.6-6.769q0-5.355-7.572-7.446c-.153-.042-.381-.118-.7-.22a11.775,11.775,0,0,0-1.286-.3q-9.34-2.461-12.066-4.619A8.082,8.082,0,0,1,301,833.237a8.771,8.771,0,0,1,4.264-7.81,15.873,15.873,0,0,1,8.826-2.378,13.362,13.362,0,0,1,8.757,2.826,12.064,12.064,0,0,1,4.121,8.259h-2.276q-1.18-9.012-10.89-9a12.822,12.822,0,0,0-6.921,1.785,6.745,6.745,0,0,0-3.453,6.025q0,5.813,11.694,8.782a1.428,1.428,0,0,0,.736.22q6.029,1.562,8.385,3.2a8.409,8.409,0,0,1,3.9,7.437,9.6,9.6,0,0,1-4.341,8.267,16.3,16.3,0,0,1-9.265,2.6,15.767,15.767,0,0,1-10.01-3.046,12.828,12.828,0,0,1-4.56-9.375h2.284q1.829,10.267,12.21,10.264" transform="translate(-90 -214.783)"/><path class="b" d="M314.537,865.217a17.545,17.545,0,0,1-11.085-3.418,14.62,14.62,0,0,1-5.229-10.627l-.169-1.929h5.661l.262,1.463c1.074,6.008,4.408,8.809,10.483,8.809a11.987,11.987,0,0,0,6.693-1.718,5.756,5.756,0,0,0,2.809-5.288c0-.99,0-4-6.278-5.728l-.524-.17a9.032,9.032,0,0,0-1.32-.313c-6.659-1.751-10.814-3.367-12.836-4.967a9.817,9.817,0,0,1-3.757-8.089,10.518,10.518,0,0,1,5.077-9.315,17.7,17.7,0,0,1,9.773-2.657,15.112,15.112,0,0,1,9.857,3.224,13.891,13.891,0,0,1,4.764,9.434l.22,1.98H323.15l-.195-1.548c-.668-5.086-3.579-7.455-9.155-7.455a11.168,11.168,0,0,0-6,1.523,4.977,4.977,0,0,0-2.623,4.51c0,3.655,5.644,5.855,10.374,7.065l.744.22c4.265,1.108,7.193,2.234,8.944,3.461a10.11,10.11,0,0,1,4.662,8.9,11.327,11.327,0,0,1-5.094,9.714,18.094,18.094,0,0,1-10.271,2.918" transform="translate(-90 -214.783)"/><path class="b" d="M367.214,811.364q1.4-2.678,6.033-2.682l6.769-.067v2h-6.405q-3.452,0-4.56,2.234a15.457,15.457,0,0,0-.66,5.508v5.5h7.5v2.157h-7.5v36.46h-2.285V818.438q0-5.064,1.108-7.074" transform="translate(-90 -214.783)"/><path class="b" d="M370.146,864.251h-5.787V818.434c0-3.7.423-6.287,1.311-7.911,1.261-2.395,3.808-3.613,7.573-3.613l8.529-.085V812.4h-8.157c-2.377,0-2.826.905-3,1.244a14.152,14.152,0,0,0-.474,4.713v3.731h7.5V827.8h-7.5Z" transform="translate(-90 -214.783)"/><path class="b" d="M392.893,855.86q3.819,5.573,11.109,5.576a12.836,12.836,0,0,0,11.186-5.576q3.312-4.772,3.308-12.573,0-7.742-3.308-12.573A12.824,12.824,0,0,0,404,825.129q-7.36,0-11.109,5.585-3.313,4.822-3.309,12.573,0,7.806,3.309,12.573M391.2,829.148q4.417-6.105,12.8-6.1t12.878,6.1q3.974,5.356,3.969,14.139t-3.969,14.206q-4.569,5.953-12.878,5.949-8.39,0-12.8-5.949-3.972-5.432-3.976-14.206t3.976-14.139" transform="translate(-90 -214.783)"/><path class="b" d="M404,826.905c-4.323,0-7.488,1.574-9.654,4.806-2,2.911-3.012,6.8-3.012,11.575,0,4.806,1.007,8.7,2.987,11.55l.008.008c2.225,3.241,5.381,4.815,9.671,4.815s7.48-1.583,9.748-4.823c1.988-2.852,3-6.744,3-11.55,0-4.772-1.016-8.664-3-11.566-2.259-3.241-5.449-4.815-9.739-4.815m0,38.312c-6.151,0-10.932-2.242-14.206-6.658-2.869-3.926-4.324-9.062-4.324-15.273s1.455-11.33,4.324-15.2c3.274-4.527,8.055-6.82,14.206-6.82s10.958,2.293,14.283,6.82c2.868,3.858,4.323,8.977,4.323,15.2s-1.455,11.347-4.323,15.256c-3.393,4.442-8.191,6.675-14.283,6.675" transform="translate(-90 -214.783)"/><path class="b" d="M435.049,823.865H437.4v6.4q2.944-6.321,12.658-6.245l-1.472,2.082a11.89,11.89,0,0,0-3.9.448,11.631,11.631,0,0,0-5.153,3.791,9.691,9.691,0,0,0-2.132,6.473v25.663h-2.352Z" transform="translate(-90 -214.783)"/><path class="b" d="M439.159,864.251H433.3V822.089h5.863v3.165c2.615-2.04,6.186-3.038,10.915-3.013l3.376.026-3.959,5.6h-.906a9.9,9.9,0,0,0-3.274.339,10.1,10.1,0,0,0-4.459,3.3,7.909,7.909,0,0,0-1.693,5.306Z" transform="translate(-90 -214.783)"/><path class="b" d="M460.286,823.865h2.352v6.32a12.567,12.567,0,0,1,11.922-7.141q9.264,0,11.329,7.886,3.974-7.881,12.438-7.886,12.057,0,12.066,13.843v25.587h-2.361v-23.21q0-6.473-1.1-9.079-2.055-4.987-8.681-4.983-6.841,0-9.637,5.06-2.133,3.947-2.133,11.38v20.832H484.2v-23.21q0-6.473-1.1-9.079-2.068-4.987-8.681-4.983-9.786,0-11.406,9.823c-.1.745-.186,1.676-.262,2.784-.068,1.125-.11,2.395-.11,3.833v20.832h-2.352Z" transform="translate(-90 -214.783)"/><path class="b" d="M512.144,864.251h-5.863V839.265c0-5.051-.525-7.344-.965-8.376-.694-1.692-2.174-3.91-7.065-3.91-3.918,0-6.566,1.354-8.106,4.155-1.269,2.335-1.912,5.872-1.912,10.509v22.608h-5.788V839.265c0-5.051-.524-7.344-.964-8.376-.694-1.692-2.183-3.91-7.074-3.91-5.66,0-8.732,2.649-9.671,8.335-.085.66-.161,1.548-.237,2.614-.068,1.084-.1,2.327-.1,3.715v22.608h-5.864V822.089H464.4v2.86a14.391,14.391,0,0,1,10.162-3.672c6.447,0,9.865,2.7,11.651,5.8a14.429,14.429,0,0,1,12.116-5.8c6.3,0,13.817,2.707,13.817,15.611Z" transform="translate(-90 -214.783)"/><path class="b" d="M530.251,855.854q3.834,5.584,11.186,5.585t11.11-5.585q3.312-4.758,3.308-12.573,0-7.729-3.308-12.573-3.757-5.572-11.11-5.576t-11.109,5.576q-3.39,4.76-3.385,12.573t3.308,12.573m11.186,7.59q-8.313,0-12.878-5.948-3.972-5.433-3.968-14.215,0-8.845,3.968-14.206,4.418-6.03,12.878-6.025,10.662,0,14.418,9.663v-8.85h2.285V862.48h-2.285v-8.335q-3.681,9.3-14.418,9.3" transform="translate(-90 -214.783)"/><path class="b" d="M541.437,826.905c-4.324,0-7.488,1.574-9.663,4.806-2.047,2.885-3.08,6.769-3.08,11.575s1.007,8.7,3,11.55l.008.008c2.217,3.241,5.407,4.815,9.739,4.815s7.488-1.566,9.663-4.8c2-2.877,3-6.769,3-11.575,0-4.772-1.007-8.664-3-11.566-2.183-3.241-5.347-4.815-9.671-4.815m0,38.312c-6.092,0-10.889-2.233-14.266-6.641-2.885-3.943-4.34-9.079-4.34-15.29,0-6.27,1.455-11.406,4.324-15.281,3.274-4.459,8.08-6.735,14.282-6.735,5.4,0,9.637,1.717,12.667,5.1v-4.281h5.787v42.162H554.1v-3.926c-3.013,3.249-7.252,4.89-12.667,4.89" transform="translate(-90 -214.783)"/><path class="b" d="M603.235,855.854q3.834,5.584,11.186,5.585t11.11-5.585q3.312-4.758,3.308-12.573,0-7.729-3.308-12.573-3.757-5.572-11.11-5.576t-11.109,5.576q-3.39,4.76-3.385,12.573t3.308,12.573m11.186,7.59q-8.313,0-12.878-5.948-3.972-5.433-3.968-14.215,0-8.845,3.968-14.206,4.418-6.03,12.878-6.025,10.662,0,14.418,9.663v-8.85h2.285V862.48h-2.285v-8.335q-3.681,9.3-14.418,9.3" transform="translate(-90 -214.783)"/><path class="b" d="M614.421,826.905c-4.324,0-7.488,1.574-9.663,4.806-2.047,2.885-3.079,6.769-3.079,11.575s1.006,8.7,3,11.55l.008.008c2.217,3.241,5.407,4.815,9.739,4.815s7.488-1.566,9.663-4.8c2-2.877,3-6.769,3-11.575,0-4.772-1.007-8.664-3-11.566-2.183-3.241-5.347-4.815-9.671-4.815m0,38.312c-6.092,0-10.889-2.233-14.265-6.641-2.886-3.943-4.341-9.079-4.341-15.29,0-6.27,1.455-11.406,4.324-15.281,3.274-4.459,8.08-6.735,14.282-6.735,5.4,0,9.638,1.717,12.667,5.1v-4.281h5.787v42.162h-5.787v-3.926c-3.013,3.249-7.252,4.89-12.667,4.89" transform="translate(-90 -214.783)"/><polygon class="b" points="582.986 598.519 582.986 609.087 590.635 609.087 590.635 611.168 582.986 611.168 582.986 647.695 580.633 647.695 580.633 598.519 582.986 598.519"/><polygon class="b" points="584.74 649.469 578.876 649.469 578.876 596.747 584.74 596.747 584.74 607.307 592.389 607.307 592.389 612.942 584.74 612.942 584.74 649.469"/><path class="b" d="M720,862.478h-2.276v-6.024q-3.618,6.993-12.878,6.988-13.1,0-13.1-13.758V823.869h2.284V848.94q0,6.244,2.276,9.079,2.5,3.338,8.461,3.342,10.813,0,12.582-9.824c.1-.736.187-1.666.263-2.783s.11-2.446.11-3.986v-20.9H720Z" transform="translate(-90 -214.783)"/><path class="b" d="M704.843,865.217c-9.714,0-14.85-5.372-14.85-15.534V822.091h5.788v26.847c0,3.723.635,6.4,1.887,7.954q2.031,2.7,7.1,2.7c6.38,0,9.832-2.657,10.856-8.368.084-.627.169-1.523.236-2.59s.1-2.369.1-3.866V822.091h5.8v42.162h-5.8v-2.682c-2.758,2.42-6.481,3.646-11.118,3.646" transform="translate(-90 -214.783)"/><path class="b" d="M749.208,861.286a13.532,13.532,0,0,0,7.649-2.006,7.54,7.54,0,0,0,3.6-6.769q0-5.355-7.573-7.446c-.152-.042-.38-.118-.7-.22a11.831,11.831,0,0,0-1.286-.3q-9.34-2.461-12.066-4.619a8.082,8.082,0,0,1-3.088-6.693,8.769,8.769,0,0,1,4.264-7.81,15.872,15.872,0,0,1,8.825-2.378,13.363,13.363,0,0,1,8.758,2.826,12.059,12.059,0,0,1,4.12,8.259h-2.276q-1.181-9.012-10.889-9a12.828,12.828,0,0,0-6.922,1.785,6.746,6.746,0,0,0-3.452,6.025q0,5.813,11.694,8.782a1.428,1.428,0,0,0,.736.22q6.029,1.562,8.385,3.2a8.408,8.408,0,0,1,3.9,7.437,9.6,9.6,0,0,1-4.34,8.267,16.3,16.3,0,0,1-9.265,2.6,15.767,15.767,0,0,1-10.01-3.046,12.828,12.828,0,0,1-4.56-9.375H737q1.828,10.267,12.21,10.264" transform="translate(-90 -214.783)"/><path class="b" d="M749.281,865.217A17.542,17.542,0,0,1,738.2,861.8a14.617,14.617,0,0,1-5.229-10.627l-.169-1.929h5.66l.263,1.463c1.074,6.008,4.408,8.809,10.483,8.809A11.989,11.989,0,0,0,755.9,857.8a5.756,5.756,0,0,0,2.809-5.288c0-.99,0-4-6.278-5.728l-.525-.17a8.972,8.972,0,0,0-1.32-.313c-6.659-1.751-10.813-3.367-12.835-4.967a9.817,9.817,0,0,1-3.757-8.089,10.518,10.518,0,0,1,5.077-9.315,17.7,17.7,0,0,1,9.772-2.657,15.115,15.115,0,0,1,9.858,3.224,13.886,13.886,0,0,1,4.763,9.434l.22,1.98H757.9l-.195-1.548c-.668-5.086-3.579-7.455-9.155-7.455a11.168,11.168,0,0,0-6,1.523,4.977,4.977,0,0,0-2.623,4.51c0,3.655,5.644,5.855,10.374,7.065l.744.22c4.265,1.108,7.192,2.234,8.944,3.461a10.11,10.11,0,0,1,4.662,8.9,11.329,11.329,0,0,1-5.094,9.714,18.1,18.1,0,0,1-10.272,2.918" transform="translate(-90 -214.783)"/><path class="b" d="M802.623,823.868h2.285v38.608h-2.285Zm1.1-15.476c1.083,0,1.616,1.168,1.616,3.495,0,2.377-.533,3.57-1.616,3.57-1.032,0-1.54-1.193-1.54-3.57,0-2.327.508-3.495,1.54-3.495" transform="translate(-90 -214.783)"/><path class="b" d="M803.312,813.88m.415,3.351c-1.506,0-3.3-.923-3.3-5.34,0-4.586,2.064-5.271,3.3-5.271,1.252,0,3.367.685,3.367,5.271,0,4.646-2.115,5.34-3.367,5.34m2.927,47.019h-5.787V822.087h5.787Z" transform="translate(-90 -214.783)"/><path class="b" d="M847.426,830.714q-3.758-5.583-11.11-5.584t-11.11,5.584q-3.389,4.759-3.384,12.574t3.308,12.573q3.834,5.573,11.186,5.576t11.11-5.576q3.312-4.772,3.308-12.573,0-7.743-3.308-12.574m5.593,31.764h-2.285v-8.554q-3.744,9.518-14.418,9.518-8.466,0-12.878-5.948-3.972-5.355-3.968-14.206,0-8.783,3.968-14.139,4.492-6.105,12.878-6.1,10.89,0,14.418,9.3V809.062h2.285Z" transform="translate(-90 -214.783)"/><path class="b" d="M836.318,826.905c-4.324,0-7.488,1.574-9.655,4.806-2.056,2.885-3.088,6.769-3.088,11.575s1.007,8.7,3,11.55c2.226,3.249,5.416,4.823,9.748,4.823s7.488-1.566,9.663-4.8c2-2.877,3-6.769,3-11.575,0-4.772-1.007-8.664-3-11.566l-.008-.009c-2.175-3.232-5.34-4.806-9.663-4.806m0,38.312c-6.194,0-11-2.242-14.283-6.658-2.868-3.867-4.323-9.012-4.323-15.273,0-6.219,1.455-11.338,4.323-15.2,3.325-4.518,8.131-6.811,14.283-6.811,5.44,0,9.679,1.624,12.666,4.823v-18.81h5.788v56.97h-5.788v-4.062c-3.029,3.343-7.268,5.026-12.666,5.026" transform="translate(-90 -214.783)"/><path class="b" d="M896.941,841.276a18.623,18.623,0,0,0-3.165-11.161,11.455,11.455,0,0,0-9.933-4.983,12.4,12.4,0,0,0-10.374,4.831,20.493,20.493,0,0,0-3.748,11.313ZM883.4,863.444q-8.162,0-12.438-6.1-3.744-5.433-3.749-14.063t3.749-13.986q4.277-6.245,12.438-6.245,8.02,0,12.218,5.576,3.821,4.988,3.824,13.394v1.413h-29.8v.593a20.35,20.35,0,0,0,3.308,11.905,11.962,11.962,0,0,0,10.45,5.508q9.265,0,12.582-8.783L897.9,853.7a14.689,14.689,0,0,1-4.637,6.473,15.363,15.363,0,0,1-9.857,3.274" transform="translate(-90 -214.783)"/><path class="b" d="M871.65,839.5h23.472a15.884,15.884,0,0,0-2.767-8.343,9.728,9.728,0,0,0-8.512-4.256,10.673,10.673,0,0,0-8.994,4.155,17.789,17.789,0,0,0-3.2,8.444M883.4,865.217c-6.025,0-10.687-2.3-13.868-6.845-2.7-3.926-4.07-8.994-4.07-15.086,0-6.109,1.371-11.16,4.07-15.01,3.164-4.645,7.835-7.006,13.868-7.006,5.9,0,10.475,2.115,13.614,6.278,2.767,3.622,4.18,8.5,4.18,14.469v3.19H871.422a18.058,18.058,0,0,0,2.97,9.7,10.213,10.213,0,0,0,9.011,4.756c5.423,0,9-2.5,10.94-7.633l.711-1.895,5.026,2.742-.542,1.455a16.492,16.492,0,0,1-5.186,7.234,17.139,17.139,0,0,1-10.949,3.655" transform="translate(-90 -214.783)"/><path class="b" d="M917.467,855.854q3.833,5.584,11.186,5.585t11.109-5.585q3.314-4.758,3.309-12.573,0-7.729-3.309-12.573-3.756-5.572-11.109-5.576t-11.11,5.576q-3.389,4.76-3.384,12.573t3.308,12.573m11.186,7.59q-8.314,0-12.878-5.948-3.973-5.433-3.969-14.215,0-8.845,3.969-14.206,4.416-6.03,12.878-6.025,10.66,0,14.418,9.663v-8.85h2.284V862.48h-2.284v-8.335q-3.681,9.3-14.418,9.3" transform="translate(-90 -214.783)"/><path class="b" d="M928.653,826.905c-4.324,0-7.489,1.574-9.663,4.806-2.048,2.885-3.08,6.769-3.08,11.575s1.007,8.7,3,11.55l.009.008c2.217,3.241,5.406,4.815,9.739,4.815s7.488-1.566,9.662-4.8c2-2.877,3-6.769,3-11.575,0-4.772-1.007-8.664-3-11.566-2.183-3.241-5.348-4.815-9.671-4.815m0,38.312c-6.092,0-10.89-2.233-14.266-6.641-2.885-3.943-4.341-9.079-4.341-15.29,0-6.27,1.456-11.406,4.324-15.281,3.275-4.459,8.081-6.735,14.283-6.735,5.4,0,9.637,1.717,12.666,5.1v-4.281h5.788v42.162h-5.788v-3.926c-3.012,3.249-7.251,4.89-12.666,4.89" transform="translate(-90 -214.783)"/><path class="b" d="M974.561,861.286a13.532,13.532,0,0,0,7.649-2.006,7.54,7.54,0,0,0,3.6-6.769q0-5.355-7.573-7.446c-.152-.042-.38-.118-.7-.22a11.831,11.831,0,0,0-1.286-.3q-9.342-2.461-12.066-4.619a8.082,8.082,0,0,1-3.088-6.693,8.769,8.769,0,0,1,4.264-7.81,15.872,15.872,0,0,1,8.825-2.378,13.363,13.363,0,0,1,8.758,2.826,12.059,12.059,0,0,1,4.12,8.259H984.79q-1.18-9.012-10.889-9a12.828,12.828,0,0,0-6.922,1.785,6.746,6.746,0,0,0-3.452,6.025q0,5.813,11.694,8.782a1.428,1.428,0,0,0,.736.22q6.029,1.562,8.393,3.2a8.418,8.418,0,0,1,3.892,7.437,9.6,9.6,0,0,1-4.34,8.267,16.3,16.3,0,0,1-9.265,2.6,15.767,15.767,0,0,1-10.01-3.046,12.828,12.828,0,0,1-4.56-9.375h2.284q1.827,10.267,12.21,10.264" transform="translate(-90 -214.783)"/><path class="b" d="M974.634,865.217A17.542,17.542,0,0,1,963.55,861.8a14.617,14.617,0,0,1-5.229-10.627l-.169-1.929h5.66l.263,1.463c1.074,6.008,4.408,8.809,10.483,8.809a11.989,11.989,0,0,0,6.693-1.718,5.756,5.756,0,0,0,2.809-5.288c0-.99,0-4-6.278-5.728l-.525-.17a8.972,8.972,0,0,0-1.32-.313c-6.659-1.751-10.813-3.367-12.835-4.967a9.817,9.817,0,0,1-3.757-8.089,10.518,10.518,0,0,1,5.077-9.315,17.7,17.7,0,0,1,9.772-2.657,15.115,15.115,0,0,1,9.858,3.224,13.886,13.886,0,0,1,4.763,9.434l.212,1.98h-5.779l-.2-1.548c-.668-5.086-3.579-7.455-9.155-7.455a11.168,11.168,0,0,0-6,1.523,4.977,4.977,0,0,0-2.623,4.51c0,3.655,5.644,5.855,10.374,7.065l.744.22c4.265,1.108,7.184,2.234,8.944,3.461a10.11,10.11,0,0,1,4.662,8.9,11.329,11.329,0,0,1-5.094,9.714,18.1,18.1,0,0,1-10.272,2.918" transform="translate(-90 -214.783)"/><path class="c" d="M628.888,261.483c-.152,19.427-6.185,36.519-14.511,51.072a83.945,83.945,0,0,0-66.4-20.569c-46.333,5.94-79.231,48.881-73.358,95.68a85.712,85.712,0,0,0,16.973,41.519c-.11-.135-.271-.262-.389-.4,0,0-31.6-30.325-37.67-89.063-2.792-27.05,2.471-60.616,14.012-99.14,20.7-14.756,44.091-21.068,70.905-24.5a158.115,158.115,0,0,1,81.262,10.958c9.18,21.288,9.18,34.445,9.18,34.445" transform="translate(-90 -214.783)"/><path class="c" d="M593.843,535.8c-3.123.406-6.211.8-9.24,1.1l-.195.026a227.391,227.391,0,0,1-55.26-.678c-38.7-5.474-65.761-21.593-84.485-39.937,12.361-2.6,24.859-9.045,36.019-13.8q26.805-11.448,53.069-24.334c13.639,4.417,28.531,4.569,45.09-1.083A257.8,257.8,0,0,0,626.19,435.37c23.666-13.758,61.454-18.513,68.815,16.1,1.709,8.038.491,16.982-4.857,25.993-19.037,32.153-60.4,53.5-96.305,58.34" transform="translate(-90 -214.783)"/><path class="b" d="M533.748,458.179q-26.235,12.845-53.069,24.335c-11.152,4.755-23.658,11.211-36.02,13.8-32.906-32.187-40.25-71.151-40.25-71.151-.228-1.015-.465-2.03-.685-3.037q-2.691-12.261-4.019-23.565c-.153-1.218-.263-2.445-.415-3.663-.508-5.2-.838-10.306-.981-15.222-.034-1.041-.009-2.023-.034-3.012-.017-1.676-.026-3.351.051-4.993,1.15-91.356,66.945-129.812,69.221-131.089-.347,1.226-.728,2.462-1.049,3.689-19.393,67.537-9.536,117.069,3.02,147.708,9.985,24.393,21.678,36.814,21.678,36.814.11.127.288.263.4.4,12.912,13.605,26.746,24.013,42.154,28.988" transform="translate(-90 -214.783)"/><path class="d" d="M648.318,389.578c-14.816,14.308-33.371,25.561-52.435,36.146q-30.626,16.995-62.139,32.458-26.234,12.844-53.06,24.334c-11.161,4.755-23.658,11.2-36.02,13.8a54.751,54.751,0,0,1-6.633,1.007,35.526,35.526,0,0,1-9.638-.558C414.178,494,400.37,483.3,392.154,472.447c-5.356-7.082-8.817-16.076-7.649-24.918,1.582-11.837,9.443-19.579,19.215-25.4,10.772-6.422,23.878-10.525,33.541-15.171q16.029-7.716,32.254-14.976,10.953-4.9,21.982-9.578,15.942-6.8,32.068-13.149c19.8-7.776,39.937-15.154,57.943-26.534,31.027-19.605,44.21-45.4,44.506-81.82,0,0,.11-13.538-6.295-33.854.364.144.719.3,1.04.449,37.577,18.91,61.818,54.989,58.273,98.615-2.2,27.271-14.046,47.324-30.714,63.468" transform="translate(-90 -214.783)"/></svg>