<svg xmlns="http://www.w3.org/2000/svg" viewBox="0 0 1360.465 400"><defs><style>.a{fill:#fff;}.b{fill:#3d7ec1;}.c{fill:#185a9c;}.d{fill:#2e75ba;}</style></defs><title>logo-white</title><polygon class="a" points="486.291 175.804 529.24 175.804 529.24 194.664 463.742 194.664 463.742 99.67 527.633 99.67 527.633 118.259 486.291 118.259 486.291 137.534 524.138 137.534 524.138 155.852 486.291 155.852 486.291 175.804"/><polygon class="a" points="623.202 99.669 643.738 99.669 643.738 194.672 620.782 194.672 620.782 136.179 599.046 166.851 588.714 166.851 566.969 136.179 566.969 194.672 544.149 194.672 544.149 99.669 564.549 99.669 593.808 139.978 623.202 99.669"/><path class="a" d="M4979.134,2665.532c9.789,0,15.568-5.424,15.568-14.519,0-9.232-5.779-14.52-15.568-14.52H4966.78v29.039Zm2.411-48.855c22.685,0,36.375,13.03,36.375,34.065,0,20.628-13.69,34.065-36.375,34.065h-14.359v26.873H4944.1v-95Z" transform="translate(-4281.289 -2517.008)"/><path class="a" d="M5062.889,2640.424l-14.223,38.947h28.184Zm24.427,71.252-5.635-15.475H5043.7l-5.509,15.475h-24.156l36.375-95h24.7l35.969,95Z" transform="translate(-4281.289 -2517.008)"/><path class="a" d="M5162.361,2692.135c15.568,0,26.568-11.533,26.568-27.956s-11-27.964-26.568-27.964c-15.442,0-26.442,11.541-26.442,27.964s11,27.956,26.442,27.956m36.637,6.65,13.022,18.59-19.2,13.436L5179.4,2710.86a57.41,57.41,0,0,1-17.041,2.58c-28.861,0-50.065-20.763-50.065-49.261s21.2-49.27,50.065-49.27c29.123,0,50.056,20.773,50.056,49.27,0,13.843-4.966,25.917-13.419,34.606" transform="translate(-4281.289 -2517.008)"/><path class="a" d="M5262.091,2665.532c9.8,0,15.577-5.424,15.577-14.519,0-9.232-5.779-14.52-15.577-14.52h-12.345v29.039Zm2.42-48.855c22.684,0,36.375,13.03,36.375,34.065,0,20.628-13.691,34.065-36.375,34.065h-14.359v26.873h-23.091v-95Z" transform="translate(-4281.289 -2517.008)"/><polygon class="a" points="1054.905 173.091 1094.631 173.091 1094.631 194.667 1031.823 194.667 1031.823 99.673 1054.905 99.673 1054.905 173.091"/><path class="a" d="M5430.285,2640.424l-14.224,38.947h28.185Zm24.427,71.252-5.635-15.475H5411.1l-5.509,15.475H5381.43l36.374-95h24.7l35.969,95Z" transform="translate(-4281.289 -2517.008)"/><path class="a" d="M5481.706,2700.139l9.934-16.829c9.256,6.515,18.521,9.637,28.717,9.637,9.4,0,14.765-2.986,14.765-8.275,0-5.026-4.967-8.148-19.055-12.082-20.671-5.568-30.469-14.385-30.469-29.86,0-16.009,12.751-27.279,34.488-27.279a59.725,59.725,0,0,1,35.842,11.676l-10.069,16.288A43.132,43.132,0,0,0,5520.9,2635c-7.649,0-12.489,2.852-12.489,7.463s3.892,7.471,17.853,11.541c21.881,6.109,32.077,15.332,32.077,30.537,0,16.965-14.9,28.362-37.441,28.362-14.494,0-28.591-4.611-39.193-12.76" transform="translate(-4281.289 -2517.008)"/><polygon class="a" points="1357.19 99.669 1357.19 121.11 1329.809 121.11 1329.809 194.672 1306.727 194.672 1306.727 121.11 1279.482 121.11 1279.482 99.669 1357.19 99.669"/><path class="b" d="M4771.469,2784.6q-3.758-5.583-11.11-5.584t-11.109,5.584q-3.389,4.759-3.385,12.574t3.309,12.573q3.833,5.573,11.185,5.576t11.11-5.576q3.312-4.771,3.308-12.573,0-7.743-3.308-12.574m5.593,31.764h-2.285v-8.554q-3.744,9.519-14.418,9.518-8.465,0-12.878-5.948-3.972-5.355-3.968-14.206,0-8.782,3.968-14.139,4.494-6.105,12.878-6.1,10.89,0,14.418,9.3v-23.286h2.285Z" transform="translate(-4281.289 -2517.008)"/><path class="b" d="M4760.36,2780.794c-4.324,0-7.488,1.574-9.663,4.806-2.047,2.885-3.079,6.769-3.079,11.575s1.006,8.7,2.995,11.55c2.225,3.249,5.415,4.823,9.747,4.823s7.488-1.566,9.663-4.8c2-2.877,3-6.769,3-11.575,0-4.772-1.007-8.664-3-11.566l-.008-.009c-2.175-3.232-5.339-4.806-9.663-4.806m0,38.312c-6.194,0-11-2.242-14.282-6.658-2.869-3.867-4.324-9.012-4.324-15.273,0-6.219,1.455-11.338,4.324-15.205,3.325-4.518,8.131-6.811,14.282-6.811,5.441,0,9.68,1.625,12.667,4.823v-18.809h5.787v56.969h-5.787v-4.061c-3.03,3.342-7.269,5.025-12.667,5.025" transform="translate(-4281.289 -2517.008)"/><path class="b" d="M4797.144,2809.744q3.832,5.584,11.185,5.584t11.11-5.584q3.312-4.76,3.308-12.574,0-7.73-3.308-12.573-3.757-5.573-11.11-5.576t-11.109,5.576q-3.389,4.759-3.385,12.573t3.309,12.574m11.185,7.589q-8.313,0-12.878-5.948-3.972-5.432-3.968-14.215,0-8.845,3.968-14.206,4.417-6.028,12.878-6.025,10.662,0,14.418,9.663v-8.85h2.285v38.617h-2.285v-8.335q-3.68,9.3-14.418,9.3" transform="translate(-4281.289 -2517.008)"/><path class="b" d="M4808.329,2780.794c-4.323,0-7.488,1.574-9.654,4.806-2.056,2.885-3.088,6.769-3.088,11.575s1.007,8.7,2.995,11.55l.009.008c2.216,3.241,5.406,4.815,9.738,4.815s7.489-1.566,9.663-4.8c2-2.877,3-6.769,3-11.575,0-4.772-1.007-8.664-2.995-11.566-2.183-3.241-5.348-4.815-9.672-4.815m0,38.312c-6.092,0-10.889-2.233-14.265-6.641-2.886-3.943-4.341-9.079-4.341-15.29,0-6.27,1.455-11.406,4.324-15.281,3.274-4.459,8.08-6.735,14.282-6.735,5.4,0,9.638,1.717,12.667,5.1v-4.281h5.787v42.162H4821v-3.926c-3.012,3.249-7.251,4.89-12.667,4.89" transform="translate(-4281.289 -2517.008)"/><path class="b" d="M4841.142,2777.754h2.352v6.321a12.568,12.568,0,0,1,11.922-7.142q9.265,0,11.33,7.886,3.972-7.881,12.438-7.886,12.057,0,12.065,13.843v25.587h-2.36v-23.21q0-6.472-1.1-9.078-2.056-4.989-8.681-4.984-6.842,0-9.638,5.06-2.132,3.947-2.132,11.38v20.832h-2.285v-23.21q0-6.472-1.1-9.078-2.07-4.989-8.682-4.984-9.785,0-11.4,9.823c-.1.745-.187,1.676-.263,2.784-.067,1.125-.11,2.395-.11,3.833v20.832h-2.352Z" transform="translate(-4281.289 -2517.008)"/><path class="b" d="M4893,2818.14h-5.864v-24.986c0-5.051-.525-7.344-.965-8.376-.693-1.692-2.174-3.909-7.065-3.909-3.917,0-6.566,1.353-8.106,4.154-1.269,2.336-1.912,5.872-1.912,10.509v22.608H4863.3v-24.986c0-5.051-.525-7.344-.965-8.376-.694-1.692-2.183-3.909-7.073-3.909-5.661,0-8.732,2.648-9.672,8.334-.084.66-.169,1.548-.236,2.614-.068,1.084-.1,2.327-.1,3.715v22.608h-5.864v-42.162h5.864v2.86a14.391,14.391,0,0,1,10.162-3.672c6.447,0,9.857,2.7,11.651,5.8a14.425,14.425,0,0,1,12.108-5.8c6.312,0,13.826,2.707,13.826,15.611Z" transform="translate(-4281.289 -2517.008)"/><path class="b" d="M4910.963,2809.749q3.821,5.573,11.11,5.576a12.836,12.836,0,0,0,11.186-5.576q3.312-4.771,3.308-12.573,0-7.742-3.308-12.573a12.824,12.824,0,0,0-11.186-5.585q-7.362,0-11.11,5.585-3.312,4.823-3.308,12.573,0,7.806,3.308,12.573m-1.692-26.712q4.418-6.1,12.8-6.1t12.878,6.1q3.972,5.357,3.968,14.139t-3.968,14.206q-4.569,5.954-12.878,5.949-8.39,0-12.8-5.949-3.972-5.432-3.977-14.206t3.977-14.139" transform="translate(-4281.289 -2517.008)"/><path class="b" d="M4922.074,2780.794c-4.324,0-7.488,1.574-9.663,4.806-2,2.911-3,6.8-3,11.575,0,4.806,1.007,8.7,2.987,11.55l.008.008c2.226,3.241,5.382,4.815,9.672,4.815s7.479-1.583,9.747-4.823c1.988-2.852,2.995-6.744,2.995-11.55,0-4.772-1.015-8.664-3-11.566-2.26-3.241-5.449-4.815-9.739-4.815m0,38.312c-6.152,0-10.932-2.242-14.207-6.658-2.868-3.926-4.323-9.062-4.323-15.273s1.455-11.33,4.315-15.2c3.283-4.527,8.063-6.82,14.215-6.82s10.957,2.293,14.282,6.82c2.869,3.858,4.324,8.977,4.324,15.2s-1.455,11.347-4.324,15.256c-3.393,4.442-8.19,6.675-14.282,6.675" transform="translate(-4281.289 -2517.008)"/><path class="b" d="M4966.217,2815.175a13.532,13.532,0,0,0,7.649-2.006,7.54,7.54,0,0,0,3.6-6.769q0-5.355-7.573-7.446c-.152-.042-.38-.118-.7-.22a11.775,11.775,0,0,0-1.286-.3q-9.341-2.462-12.066-4.619a8.082,8.082,0,0,1-3.088-6.693,8.769,8.769,0,0,1,4.264-7.81,15.872,15.872,0,0,1,8.825-2.378,13.363,13.363,0,0,1,8.758,2.826,12.059,12.059,0,0,1,4.12,8.259h-2.276q-1.181-9.012-10.889-9a12.828,12.828,0,0,0-6.922,1.785,6.747,6.747,0,0,0-3.452,6.025q0,5.813,11.694,8.782a1.418,1.418,0,0,0,.736.22q6.028,1.562,8.385,3.2a8.409,8.409,0,0,1,3.9,7.437,9.6,9.6,0,0,1-4.341,8.267,16.3,16.3,0,0,1-9.265,2.6,15.767,15.767,0,0,1-10.01-3.046,12.828,12.828,0,0,1-4.56-9.375h2.284q1.828,10.267,12.21,10.264" transform="translate(-4281.289 -2517.008)"/><path class="b" d="M4966.29,2819.106a17.542,17.542,0,0,1-11.084-3.418,14.617,14.617,0,0,1-5.229-10.627l-.169-1.929h5.66l.263,1.463c1.074,6.008,4.408,8.809,10.483,8.809a11.989,11.989,0,0,0,6.693-1.718,5.756,5.756,0,0,0,2.809-5.288c0-.99,0-4-6.278-5.728l-.525-.17a8.972,8.972,0,0,0-1.32-.313c-6.659-1.751-10.813-3.367-12.835-4.967a9.816,9.816,0,0,1-3.757-8.088,10.519,10.519,0,0,1,5.077-9.316,17.7,17.7,0,0,1,9.772-2.657,15.115,15.115,0,0,1,9.858,3.224,13.886,13.886,0,0,1,4.763,9.434l.22,1.98H4974.9l-.2-1.548c-.668-5.086-3.579-7.455-9.155-7.455a11.168,11.168,0,0,0-6,1.523,4.977,4.977,0,0,0-2.623,4.51c0,3.655,5.644,5.855,10.374,7.065l.744.22c4.265,1.108,7.192,2.234,8.944,3.461a10.111,10.111,0,0,1,4.662,8.9,11.329,11.329,0,0,1-5.094,9.714,18.087,18.087,0,0,1-10.272,2.918" transform="translate(-4281.289 -2517.008)"/><path class="b" d="M5018.968,2765.253q1.4-2.678,6.033-2.682l6.769-.067v2.005h-6.405q-3.451,0-4.561,2.234a15.457,15.457,0,0,0-.66,5.508v5.5h7.506v2.157h-7.506v36.46h-2.284v-44.041q0-5.064,1.108-7.074" transform="translate(-4281.289 -2517.008)"/><path class="b" d="M5021.9,2818.14h-5.787v-45.817c0-3.7.423-6.287,1.311-7.911,1.261-2.395,3.808-3.613,7.573-3.613l8.529-.085v5.576h-8.157c-2.377,0-2.826.905-2.995,1.244a14.157,14.157,0,0,0-.474,4.713v3.731h7.505v5.711H5021.9Z" transform="translate(-4281.289 -2517.008)"/><path class="b" d="M5044.646,2809.749q3.821,5.573,11.11,5.576a12.836,12.836,0,0,0,11.186-5.576q3.312-4.771,3.308-12.573,0-7.742-3.308-12.573a12.824,12.824,0,0,0-11.186-5.585q-7.36,0-11.11,5.585-3.312,4.823-3.308,12.573,0,7.806,3.308,12.573m-1.692-26.712q4.418-6.1,12.8-6.1t12.878,6.1q3.972,5.357,3.968,14.139t-3.968,14.206q-4.569,5.954-12.878,5.949-8.39,0-12.8-5.949-3.972-5.432-3.977-14.206t3.977-14.139" transform="translate(-4281.289 -2517.008)"/><path class="b" d="M5055.756,2780.794c-4.324,0-7.488,1.574-9.654,4.806-2.006,2.911-3.012,6.8-3.012,11.575,0,4.806,1.006,8.7,2.986,11.55l.009.008c2.225,3.241,5.381,4.815,9.671,4.815s7.48-1.583,9.747-4.823c1.989-2.852,3-6.744,3-11.55,0-4.772-1.016-8.664-3-11.566-2.259-3.241-5.449-4.815-9.739-4.815m0,38.312c-6.151,0-10.932-2.242-14.206-6.658-2.869-3.926-4.324-9.062-4.324-15.273s1.455-11.33,4.324-15.2c3.274-4.527,8.055-6.82,14.206-6.82s10.957,2.293,14.283,6.82c2.868,3.858,4.323,8.977,4.323,15.2s-1.455,11.347-4.323,15.256c-3.393,4.442-8.191,6.675-14.283,6.675" transform="translate(-4281.289 -2517.008)"/><path class="b" d="M5086.8,2777.754h2.352v6.4q2.945-6.321,12.658-6.245l-1.472,2.082a11.89,11.89,0,0,0-3.9.448,11.631,11.631,0,0,0-5.153,3.791,9.691,9.691,0,0,0-2.132,6.473v25.663H5086.8Z" transform="translate(-4281.289 -2517.008)"/><path class="b" d="M5090.913,2818.14h-5.863v-42.162h5.863v3.165c2.615-2.04,6.185-3.038,10.915-3.013l3.376.026-3.96,5.6h-.9a9.931,9.931,0,0,0-3.274.339,10.1,10.1,0,0,0-4.459,3.3,7.909,7.909,0,0,0-1.693,5.306Z" transform="translate(-4281.289 -2517.008)"/><path class="b" d="M5112.039,2777.754h2.353v6.321a12.566,12.566,0,0,1,11.921-7.142q9.265,0,11.33,7.886,3.972-7.881,12.438-7.886,12.057,0,12.066,13.843v25.587h-2.361v-23.21q0-6.472-1.1-9.078-2.057-4.989-8.681-4.984-6.841,0-9.637,5.06-2.133,3.947-2.133,11.38v20.832h-2.284v-23.21q0-6.472-1.1-9.078-2.069-4.989-8.681-4.984-9.786,0-11.406,9.823c-.1.745-.186,1.676-.262,2.784-.068,1.125-.11,2.395-.11,3.833v20.832h-2.353Z" transform="translate(-4281.289 -2517.008)"/><path class="b" d="M5163.9,2818.14h-5.863v-24.986c0-5.051-.525-7.344-.965-8.376-.694-1.692-2.175-3.909-7.065-3.909-3.918,0-6.566,1.353-8.106,4.154-1.269,2.336-1.912,5.872-1.912,10.509v22.608H5134.2v-24.986c0-5.051-.524-7.344-.964-8.376-.694-1.692-2.183-3.909-7.074-3.909-5.66,0-8.732,2.648-9.671,8.334-.085.66-.161,1.548-.237,2.614-.068,1.084-.1,2.327-.1,3.715v22.608h-5.863v-42.162h5.863v2.86a14.393,14.393,0,0,1,10.162-3.672c6.448,0,9.866,2.7,11.652,5.8a14.429,14.429,0,0,1,12.116-5.8c6.3,0,13.817,2.707,13.817,15.611Z" transform="translate(-4281.289 -2517.008)"/><path class="b" d="M5182.005,2809.744q3.834,5.584,11.186,5.584t11.11-5.584q3.312-4.76,3.308-12.574,0-7.73-3.308-12.573-3.758-5.573-11.11-5.576t-11.11,5.576q-3.389,4.759-3.384,12.573t3.308,12.574m11.186,7.589q-8.313,0-12.878-5.948-3.972-5.432-3.968-14.215,0-8.845,3.968-14.206,4.416-6.028,12.878-6.025,10.66,0,14.418,9.663v-8.85h2.284v38.617h-2.284v-8.335q-3.681,9.3-14.418,9.3" transform="translate(-4281.289 -2517.008)"/><path class="b" d="M5193.191,2780.794c-4.324,0-7.488,1.574-9.663,4.806-2.047,2.885-3.08,6.769-3.08,11.575s1.007,8.7,3,11.55l.008.008c2.217,3.241,5.407,4.815,9.739,4.815s7.488-1.566,9.663-4.8c2-2.877,3-6.769,3-11.575,0-4.772-1.006-8.664-2.995-11.566-2.183-3.241-5.347-4.815-9.671-4.815m0,38.312c-6.092,0-10.89-2.233-14.266-6.641-2.885-3.943-4.34-9.079-4.34-15.29,0-6.27,1.455-11.406,4.323-15.281,3.275-4.459,8.081-6.735,14.283-6.735,5.4,0,9.637,1.717,12.666,5.1v-4.281h5.788v42.162h-5.788v-3.926c-3.012,3.249-7.251,4.89-12.666,4.89" transform="translate(-4281.289 -2517.008)"/><path class="b" d="M5254.989,2809.744q3.834,5.584,11.186,5.584t11.11-5.584q3.312-4.76,3.308-12.574,0-7.73-3.308-12.573-3.757-5.573-11.11-5.576t-11.11,5.576q-3.389,4.759-3.384,12.573t3.308,12.574m11.186,7.589q-8.313,0-12.878-5.948-3.972-5.432-3.968-14.215,0-8.845,3.968-14.206,4.418-6.028,12.878-6.025,10.66,0,14.418,9.663v-8.85h2.285v38.617h-2.285v-8.335q-3.681,9.3-14.418,9.3" transform="translate(-4281.289 -2517.008)"/><path class="b" d="M5266.175,2780.794c-4.324,0-7.488,1.574-9.663,4.806-2.047,2.885-3.08,6.769-3.08,11.575s1.007,8.7,3,11.55l.008.008c2.217,3.241,5.407,4.815,9.739,4.815s7.488-1.566,9.663-4.8c2-2.877,3-6.769,3-11.575,0-4.772-1.006-8.664-3-11.566-2.183-3.241-5.347-4.815-9.671-4.815m0,38.312c-6.092,0-10.89-2.233-14.266-6.641-2.885-3.943-4.34-9.079-4.34-15.29,0-6.27,1.455-11.406,4.323-15.281,3.275-4.459,8.081-6.735,14.283-6.735,5.4,0,9.637,1.717,12.666,5.1v-4.281h5.788v42.162h-5.788v-3.926c-3.012,3.249-7.251,4.89-12.666,4.89" transform="translate(-4281.289 -2517.008)"/><polygon class="b" points="1043.451 250.182 1043.451 260.751 1051.1 260.751 1051.1 262.832 1043.451 262.832 1043.451 299.359 1041.098 299.359 1041.098 250.182 1043.451 250.182"/><polygon class="b" points="1045.205 301.132 1039.341 301.132 1039.341 248.411 1045.205 248.411 1045.205 258.97 1052.854 258.97 1052.854 264.605 1045.205 264.605 1045.205 301.132"/><path class="b" d="M5371.753,2816.367h-2.277v-6.024q-3.617,6.993-12.877,6.988-13.1,0-13.1-13.758v-25.815h2.284v25.071q0,6.245,2.276,9.079,2.5,3.338,8.461,3.342,10.813,0,12.582-9.824c.1-.735.186-1.666.262-2.783s.11-2.445.11-3.985v-20.9h2.277Z" transform="translate(-4281.289 -2517.008)"/><path class="b" d="M5356.6,2819.106c-9.714,0-14.85-5.372-14.85-15.534V2775.98h5.788v26.847c0,3.723.634,6.4,1.887,7.954q2.029,2.7,7.1,2.7c6.379,0,9.832-2.657,10.855-8.368.085-.627.17-1.523.237-2.589q.1-1.624.1-3.867V2775.98h5.8v42.162h-5.8v-2.682c-2.758,2.42-6.481,3.646-11.118,3.646" transform="translate(-4281.289 -2517.008)"/><path class="b" d="M5400.962,2815.175a13.532,13.532,0,0,0,7.649-2.006,7.542,7.542,0,0,0,3.6-6.769q0-5.355-7.573-7.446c-.152-.042-.38-.118-.7-.22a11.887,11.887,0,0,0-1.286-.3q-9.342-2.462-12.066-4.619a8.082,8.082,0,0,1-3.088-6.693,8.769,8.769,0,0,1,4.264-7.81,15.872,15.872,0,0,1,8.825-2.378,13.363,13.363,0,0,1,8.758,2.826,12.059,12.059,0,0,1,4.12,8.259h-2.276q-1.18-9.012-10.889-9a12.828,12.828,0,0,0-6.922,1.785,6.747,6.747,0,0,0-3.452,6.025q0,5.813,11.694,8.782a1.415,1.415,0,0,0,.736.22q6.029,1.562,8.385,3.2a8.408,8.408,0,0,1,3.9,7.437,9.6,9.6,0,0,1-4.34,8.267,16.3,16.3,0,0,1-9.265,2.6,15.765,15.765,0,0,1-10.01-3.046,12.828,12.828,0,0,1-4.56-9.375h2.284q1.827,10.267,12.21,10.264" transform="translate(-4281.289 -2517.008)"/><path class="b" d="M5401.035,2819.106a17.542,17.542,0,0,1-11.084-3.418,14.617,14.617,0,0,1-5.229-10.627l-.169-1.929h5.66l.263,1.463c1.074,6.008,4.408,8.809,10.483,8.809a11.992,11.992,0,0,0,6.693-1.718,5.756,5.756,0,0,0,2.809-5.288c0-.99,0-4-6.278-5.728l-.525-.17a8.972,8.972,0,0,0-1.32-.313c-6.659-1.751-10.813-3.367-12.835-4.967a9.813,9.813,0,0,1-3.757-8.088,10.519,10.519,0,0,1,5.077-9.316,17.7,17.7,0,0,1,9.772-2.657,15.115,15.115,0,0,1,9.858,3.224,13.886,13.886,0,0,1,4.763,9.434l.22,1.98h-5.787l-.2-1.548c-.668-5.086-3.579-7.455-9.155-7.455a11.168,11.168,0,0,0-6,1.523,4.977,4.977,0,0,0-2.623,4.51c0,3.655,5.644,5.855,10.374,7.065l.744.22c4.265,1.108,7.192,2.234,8.944,3.461a10.111,10.111,0,0,1,4.662,8.9,11.329,11.329,0,0,1-5.094,9.714,18.089,18.089,0,0,1-10.272,2.918" transform="translate(-4281.289 -2517.008)"/><path class="b" d="M5454.377,2777.757h2.285v38.608h-2.285Zm1.1-15.476c1.083,0,1.616,1.168,1.616,3.495,0,2.377-.533,3.57-1.616,3.57-1.032,0-1.54-1.193-1.54-3.57,0-2.327.508-3.495,1.54-3.495" transform="translate(-4281.289 -2517.008)"/><path class="b" d="M5455.066,2767.769m.415,3.351c-1.506,0-3.3-.923-3.3-5.34,0-4.586,2.064-5.271,3.3-5.271,1.252,0,3.367.685,3.367,5.271,0,4.646-2.115,5.34-3.367,5.34m2.927,47.019h-5.787v-42.163h5.787Z" transform="translate(-4281.289 -2517.008)"/><path class="b" d="M5499.179,2784.6q-3.756-5.583-11.109-5.584t-11.11,5.584q-3.389,4.759-3.384,12.574t3.308,12.573q3.834,5.573,11.186,5.576t11.109-5.576q3.314-4.771,3.309-12.573,0-7.743-3.309-12.574m5.593,31.764h-2.284v-8.554q-3.744,9.519-14.418,9.518-8.466,0-12.878-5.948-3.972-5.355-3.968-14.206,0-8.782,3.968-14.139,4.492-6.105,12.878-6.1,10.89,0,14.418,9.3v-23.286h2.284Z" transform="translate(-4281.289 -2517.008)"/><path class="b" d="M5488.072,2780.794c-4.324,0-7.489,1.574-9.655,4.806-2.056,2.885-3.088,6.769-3.088,11.575s1.007,8.7,2.995,11.55c2.226,3.249,5.415,4.823,9.748,4.823s7.488-1.566,9.662-4.8c2-2.877,3-6.769,3-11.575,0-4.772-1.007-8.664-2.995-11.566l-.009-.009c-2.174-3.232-5.339-4.806-9.662-4.806m0,38.312c-6.194,0-11-2.242-14.283-6.658-2.868-3.867-4.324-9.012-4.324-15.273,0-6.219,1.456-11.338,4.324-15.205,3.325-4.518,8.131-6.811,14.283-6.811,5.44,0,9.679,1.625,12.666,4.823v-18.809h5.788v56.969h-5.788v-4.061c-3.029,3.342-7.268,5.025-12.666,5.025" transform="translate(-4281.289 -2517.008)"/><path class="b" d="M5548.7,2795.165A18.623,18.623,0,0,0,5545.53,2784a11.455,11.455,0,0,0-9.933-4.983,12.4,12.4,0,0,0-10.374,4.831,20.493,20.493,0,0,0-3.748,11.313Zm-13.538,22.168q-8.161,0-12.438-6.1-3.744-5.433-3.749-14.063t3.749-13.986q4.276-6.244,12.438-6.245,8.02,0,12.218,5.576,3.82,4.988,3.824,13.394v1.413h-29.8v.593a20.35,20.35,0,0,0,3.308,11.905,11.962,11.962,0,0,0,10.45,5.508q9.264,0,12.582-8.783l1.912,1.041a14.689,14.689,0,0,1-4.637,6.473,15.363,15.363,0,0,1-9.857,3.274" transform="translate(-4281.289 -2517.008)"/><path class="b" d="M5523.4,2793.393h23.472a15.884,15.884,0,0,0-2.767-8.343,9.728,9.728,0,0,0-8.512-4.256,10.675,10.675,0,0,0-8.995,4.155,17.8,17.8,0,0,0-3.2,8.444m11.753,25.713c-6.025,0-10.687-2.3-13.868-6.845-2.7-3.926-4.07-8.994-4.07-15.086,0-6.109,1.371-11.16,4.07-15.01,3.164-4.645,7.835-7.006,13.868-7.006,5.9,0,10.475,2.115,13.614,6.278,2.767,3.622,4.18,8.495,4.18,14.469v3.19h-29.775a18.058,18.058,0,0,0,2.97,9.7,10.212,10.212,0,0,0,9.011,4.756c5.423,0,9-2.5,10.94-7.633l.711-1.895,5.026,2.742-.542,1.455a16.492,16.492,0,0,1-5.186,7.234,17.139,17.139,0,0,1-10.949,3.655" transform="translate(-4281.289 -2517.008)"/><path class="b" d="M5569.221,2809.744q3.833,5.584,11.186,5.584t11.109-5.584q3.312-4.76,3.308-12.574,0-7.73-3.308-12.573-3.756-5.573-11.109-5.576t-11.11,5.576q-3.389,4.759-3.385,12.573t3.309,12.574m11.186,7.589q-8.315,0-12.878-5.948-3.974-5.432-3.969-14.215,0-8.845,3.969-14.206,4.416-6.028,12.878-6.025,10.66,0,14.417,9.663v-8.85h2.285v38.617h-2.285v-8.335q-3.679,9.3-14.417,9.3" transform="translate(-4281.289 -2517.008)"/><path class="b" d="M5580.407,2780.794c-4.324,0-7.489,1.574-9.663,4.806-2.048,2.885-3.08,6.769-3.08,11.575s1.007,8.7,2.995,11.55l.009.008c2.216,3.241,5.406,4.815,9.739,4.815s7.488-1.566,9.662-4.8c2-2.877,3-6.769,3-11.575,0-4.772-1.007-8.664-2.995-11.566-2.183-3.241-5.348-4.815-9.671-4.815m0,38.312c-6.093,0-10.89-2.233-14.266-6.641-2.885-3.943-4.341-9.079-4.341-15.29,0-6.27,1.456-11.406,4.324-15.281,3.274-4.459,8.08-6.735,14.283-6.735,5.4,0,9.637,1.717,12.666,5.1v-4.281h5.788v42.162h-5.788v-3.926c-3.012,3.249-7.251,4.89-12.666,4.89" transform="translate(-4281.289 -2517.008)"/><path class="b" d="M5626.315,2815.175a13.526,13.526,0,0,0,7.648-2.006,7.541,7.541,0,0,0,3.605-6.769q0-5.355-7.573-7.446c-.152-.042-.381-.118-.7-.22a11.887,11.887,0,0,0-1.286-.3q-9.342-2.462-12.066-4.619a8.082,8.082,0,0,1-3.088-6.693,8.769,8.769,0,0,1,4.264-7.81,15.869,15.869,0,0,1,8.825-2.378,13.363,13.363,0,0,1,8.758,2.826,12.059,12.059,0,0,1,4.12,8.259h-2.276q-1.181-9.012-10.889-9a12.824,12.824,0,0,0-6.922,1.785,6.747,6.747,0,0,0-3.452,6.025q0,5.813,11.693,8.782a1.423,1.423,0,0,0,.737.22q6.028,1.562,8.393,3.2a8.418,8.418,0,0,1,3.892,7.437,9.6,9.6,0,0,1-4.34,8.267,16.3,16.3,0,0,1-9.265,2.6,15.765,15.765,0,0,1-10.01-3.046,12.833,12.833,0,0,1-4.561-9.375h2.285q1.827,10.267,12.21,10.264" transform="translate(-4281.289 -2517.008)"/><path class="b" d="M5626.388,2819.106a17.542,17.542,0,0,1-11.084-3.418,14.617,14.617,0,0,1-5.229-10.627l-.169-1.929h5.66l.263,1.463c1.074,6.008,4.408,8.809,10.483,8.809a11.989,11.989,0,0,0,6.693-1.718,5.756,5.756,0,0,0,2.809-5.288c0-.99,0-4-6.278-5.728l-.525-.17a8.972,8.972,0,0,0-1.32-.313c-6.659-1.751-10.813-3.367-12.835-4.967a9.816,9.816,0,0,1-3.757-8.088,10.519,10.519,0,0,1,5.077-9.316,17.7,17.7,0,0,1,9.772-2.657,15.115,15.115,0,0,1,9.858,3.224,13.886,13.886,0,0,1,4.763,9.434l.212,1.98H5635l-.2-1.548c-.668-5.086-3.579-7.455-9.155-7.455a11.168,11.168,0,0,0-6,1.523,4.977,4.977,0,0,0-2.623,4.51c0,3.655,5.644,5.855,10.374,7.065l.744.22c4.265,1.108,7.184,2.234,8.944,3.461a10.111,10.111,0,0,1,4.662,8.9,11.329,11.329,0,0,1-5.094,9.714,18.087,18.087,0,0,1-10.272,2.918" transform="translate(-4281.289 -2517.008)"/><path class="c" d="M4583.747,2574.753c-.189,24.021-7.648,45.155-17.943,63.15a103.794,103.794,0,0,0-82.108-25.434c-57.291,7.345-97.968,60.441-90.707,118.307a105.993,105.993,0,0,0,20.987,51.338c-.136-.167-.335-.324-.481-.492,0,0-39.077-37.5-46.578-110.125-3.453-33.448,3.055-74.951,17.325-122.586,25.6-18.246,54.519-26.051,87.674-30.3a195.511,195.511,0,0,1,100.479,13.549c11.352,26.323,11.352,42.592,11.352,42.592" transform="translate(-4281.289 -2517.008)"/><path class="c" d="M4540.413,2913.949c-3.86.5-7.679.984-11.425,1.36l-.24.032c-25.518,2.605-48.221,2.029-68.329-.838-47.854-6.769-81.313-26.7-104.465-49.381,15.285-3.212,30.738-11.184,44.537-17.064q33.145-14.155,65.619-30.089c16.865,5.461,35.279,5.649,55.754-1.34a318.738,318.738,0,0,0,58.546-26.867c29.263-17.011,75.987-22.891,85.089,19.91,2.114,9.939.607,21-6.005,32.14-23.54,39.757-74.69,66.153-119.081,72.137" transform="translate(-4281.289 -2517.008)"/><path class="b" d="M4466.106,2817.965q-32.437,15.882-65.619,30.089c-13.789,5.88-29.252,13.863-44.538,17.064-40.687-39.8-49.768-87.976-49.768-87.976-.283-1.256-.576-2.511-.848-3.756q-3.327-15.16-4.969-29.138c-.189-1.506-.325-3.023-.513-4.53-.628-6.434-1.036-12.743-1.214-18.821-.041-1.287-.01-2.5-.041-3.725-.021-2.071-.032-4.143.062-6.173,1.423-112.96,82.777-160.511,85.592-162.091-.429,1.517-.9,3.045-1.3,4.562-23.979,83.509-11.791,144.755,3.735,182.639,12.346,30.162,26.805,45.521,26.805,45.521.136.157.355.324.491.491,15.966,16.824,33.071,29.692,52.123,35.844" transform="translate(-4281.289 -2517.008)"/><path class="d" d="M4607.771,2733.14c-18.319,17.692-41.263,31.607-64.834,44.7q-37.869,21.014-76.835,40.133-32.437,15.882-65.609,30.09c-13.8,5.88-29.252,13.852-44.537,17.064a67.961,67.961,0,0,1-8.2,1.245,43.973,43.973,0,0,1-11.916-.691c-17.577-3.421-34.651-16.656-44.81-30.068-6.623-8.757-10.9-19.879-9.458-30.811,1.957-14.637,11.676-24.21,23.76-31.408,13.318-7.941,29.524-13.015,41.472-18.759q19.821-9.542,39.882-18.518,13.544-6.059,27.181-11.843,19.712-8.412,39.652-16.259c24.481-9.614,49.382-18.738,71.645-32.809,38.365-24.241,54.665-56.141,55.032-101.17,0,0,.136-16.739-7.784-41.859.45.178.889.366,1.287.554,46.462,23.383,76.437,67.994,72.053,121.938-2.72,33.719-17.367,58.515-37.978,78.476" transform="translate(-4281.289 -2517.008)"/></svg>