<svg xmlns="http://www.w3.org/2000/svg" viewBox="0 0 1360.465 400"><defs><style>.a{fill:#1b213f;}.b{fill:#3d7ec1;}.c{fill:#185a9c;}.d{fill:#2e75ba;}</style></defs><title>logo-dark</title><polygon class="a" points="486.291 175.804 529.24 175.804 529.24 194.664 463.742 194.664 463.742 99.67 527.632 99.67 527.632 118.259 486.291 118.259 486.291 137.534 524.138 137.534 524.138 155.852 486.291 155.852 486.291 175.804"/><polygon class="a" points="623.202 99.669 643.737 99.669 643.737 194.672 620.782 194.672 620.782 136.179 599.045 166.851 588.714 166.851 566.969 136.179 566.969 194.672 544.149 194.672 544.149 99.669 564.549 99.669 593.808 139.978 623.202 99.669"/><path class="a" d="M4979.133,1577.028c9.79,0,15.569-5.423,15.569-14.519,0-9.232-5.779-14.52-15.569-14.52H4966.78v29.039Zm2.412-48.855c22.684,0,36.375,13.03,36.375,34.065,0,20.628-13.691,34.065-36.375,34.065h-14.359v26.873H4944.1v-95Z" transform="translate(-4281.289 -1428.504)"/><path class="a" d="M5062.888,1551.92l-14.223,38.947h28.184Zm24.428,71.252-5.635-15.475H5043.7l-5.508,15.475h-24.157l36.375-95h24.7l35.969,95Z" transform="translate(-4281.289 -1428.504)"/><path class="a" d="M5162.36,1603.631c15.569,0,26.569-11.533,26.569-27.956s-11-27.964-26.569-27.964c-15.441,0-26.441,11.541-26.441,27.964s11,27.956,26.441,27.956m36.637,6.65,13.022,18.59-19.2,13.436-13.42-19.951a57.405,57.405,0,0,1-17.041,2.581c-28.861,0-50.065-20.764-50.065-49.262s21.2-49.27,50.065-49.27c29.124,0,50.057,20.773,50.057,49.27,0,13.843-4.967,25.917-13.42,34.606" transform="translate(-4281.289 -1428.504)"/><path class="a" d="M5262.09,1577.028c9.8,0,15.577-5.423,15.577-14.519,0-9.232-5.779-14.52-15.577-14.52h-12.345v29.039Zm2.42-48.855c22.685,0,36.375,13.03,36.375,34.065,0,20.628-13.69,34.065-36.375,34.065h-14.359v26.873h-23.09v-95Z" transform="translate(-4281.289 -1428.504)"/><polygon class="a" points="1054.905 173.091 1094.631 173.091 1094.631 194.667 1031.823 194.667 1031.823 99.673 1054.905 99.673 1054.905 173.091"/><path class="a" d="M5430.284,1551.92l-14.223,38.947h28.184Zm24.428,71.252-5.635-15.475h-37.983l-5.508,15.475h-24.157l36.375-95h24.7l35.969,95Z" transform="translate(-4281.289 -1428.504)"/><path class="a" d="M5481.706,1611.635l9.933-16.829c9.257,6.515,18.522,9.637,28.718,9.637,9.4,0,14.764-2.986,14.764-8.275,0-5.026-4.966-8.148-19.054-12.082-20.671-5.568-30.469-14.384-30.469-29.86,0-16.009,12.751-27.279,34.488-27.279a59.728,59.728,0,0,1,35.842,11.676l-10.069,16.288a43.131,43.131,0,0,0-24.961-8.418c-7.649,0-12.489,2.851-12.489,7.462s3.893,7.471,17.854,11.541c21.88,6.109,32.076,15.332,32.076,30.537,0,16.965-14.9,28.362-37.441,28.362-14.494,0-28.59-4.611-39.192-12.76" transform="translate(-4281.289 -1428.504)"/><polygon class="a" points="1357.189 99.669 1357.189 121.11 1329.809 121.11 1329.809 194.672 1306.727 194.672 1306.727 121.11 1279.481 121.11 1279.481 99.669 1357.189 99.669"/><path class="b" d="M4771.468,1696.1q-3.756-5.583-11.109-5.584t-11.11,5.584q-3.389,4.759-3.384,12.574t3.308,12.573q3.833,5.572,11.186,5.576t11.109-5.576q3.313-4.772,3.309-12.573,0-7.742-3.309-12.574m5.593,31.764h-2.284v-8.554q-3.744,9.519-14.418,9.519-8.466,0-12.878-5.949-3.973-5.355-3.969-14.206,0-8.783,3.969-14.139,4.493-6.105,12.878-6.1,10.89,0,14.418,9.3v-23.286h2.284Z" transform="translate(-4281.289 -1428.504)"/><path class="b" d="M4760.36,1692.29c-4.324,0-7.489,1.574-9.663,4.806-2.048,2.885-3.08,6.769-3.08,11.575s1.007,8.7,2.995,11.55c2.226,3.249,5.415,4.823,9.748,4.823s7.488-1.566,9.662-4.8c2-2.877,3-6.769,3-11.575,0-4.772-1.007-8.664-2.995-11.566l-.009-.009c-2.174-3.232-5.339-4.806-9.662-4.806m0,38.313c-6.194,0-11-2.243-14.283-6.659-2.868-3.867-4.324-9.012-4.324-15.273,0-6.219,1.456-11.338,4.324-15.205,3.325-4.518,8.131-6.811,14.283-6.811,5.44,0,9.679,1.625,12.666,4.823v-18.809h5.788v56.969h-5.788v-4.061c-3.029,3.342-7.268,5.026-12.666,5.026" transform="translate(-4281.289 -1428.504)"/><path class="b" d="M4797.143,1721.24q3.833,5.584,11.186,5.584t11.11-5.584q3.312-4.759,3.308-12.574,0-7.73-3.308-12.573-3.757-5.573-11.11-5.576t-11.11,5.576q-3.389,4.759-3.384,12.573t3.308,12.574m11.186,7.589q-8.313,0-12.878-5.948-3.972-5.432-3.968-14.215,0-8.845,3.968-14.206,4.416-6.028,12.878-6.025,10.66,0,14.418,9.663v-8.85h2.284v38.617h-2.284v-8.335q-3.681,9.3-14.418,9.3" transform="translate(-4281.289 -1428.504)"/><path class="b" d="M4808.329,1692.29c-4.324,0-7.488,1.574-9.654,4.806-2.056,2.885-3.089,6.769-3.089,11.575s1.007,8.7,3,11.55l.008.008c2.217,3.241,5.407,4.815,9.739,4.815s7.488-1.566,9.663-4.8c2-2.877,3-6.769,3-11.575,0-4.772-1.007-8.664-2.995-11.566-2.183-3.241-5.347-4.815-9.671-4.815m0,38.313c-6.092,0-10.89-2.234-14.266-6.642-2.885-3.943-4.34-9.079-4.34-15.29,0-6.27,1.455-11.4,4.323-15.281,3.275-4.459,8.081-6.735,14.283-6.735,5.4,0,9.637,1.718,12.666,5.1v-4.281h5.788v42.162H4821v-3.926c-3.012,3.249-7.251,4.891-12.666,4.891" transform="translate(-4281.289 -1428.504)"/><path class="b" d="M4841.142,1689.25h2.352v6.321a12.568,12.568,0,0,1,11.922-7.142q9.264,0,11.329,7.886,3.974-7.881,12.438-7.886,12.057,0,12.066,13.843v25.587h-2.361v-23.21c0-4.315-.364-7.335-1.1-9.078q-2.055-4.989-8.681-4.984-6.841,0-9.637,5.06-2.133,3.947-2.133,11.38v20.832h-2.284v-23.21c0-4.315-.364-7.335-1.1-9.078q-2.069-4.989-8.681-4.984-9.786,0-11.406,9.823c-.1.745-.186,1.676-.262,2.784-.068,1.125-.11,2.395-.11,3.833v20.832h-2.352Z" transform="translate(-4281.289 -1428.504)"/><path class="b" d="M4893,1729.636h-5.863V1704.65c0-5.051-.525-7.344-.965-8.376-.694-1.692-2.175-3.909-7.065-3.909-3.918,0-6.566,1.353-8.106,4.154-1.269,2.336-1.912,5.872-1.912,10.509v22.608H4863.3V1704.65c0-5.051-.524-7.344-.964-8.376-.694-1.692-2.183-3.909-7.074-3.909-5.66,0-8.732,2.648-9.671,8.334-.085.66-.169,1.548-.237,2.614-.068,1.084-.1,2.327-.1,3.715v22.608h-5.864v-42.162h5.864v2.86a14.388,14.388,0,0,1,10.161-3.672c6.448,0,9.858,2.7,11.652,5.8a14.425,14.425,0,0,1,12.108-5.8c6.312,0,13.825,2.708,13.825,15.611Z" transform="translate(-4281.289 -1428.504)"/><path class="b" d="M4910.963,1721.246q3.821,5.571,11.109,5.575a12.837,12.837,0,0,0,11.186-5.575q3.312-4.773,3.308-12.574,0-7.742-3.308-12.573a12.824,12.824,0,0,0-11.186-5.585q-7.361,0-11.109,5.585-3.314,4.823-3.309,12.573,0,7.806,3.309,12.574m-1.692-26.713q4.416-6.1,12.8-6.1t12.878,6.1q3.974,5.357,3.969,14.139t-3.969,14.207q-4.569,5.952-12.878,5.948-8.388,0-12.8-5.948-3.973-5.433-3.977-14.207t3.977-14.139" transform="translate(-4281.289 -1428.504)"/><path class="b" d="M4922.073,1692.29c-4.323,0-7.488,1.574-9.663,4.806-2,2.911-3,6.8-3,11.575,0,4.806,1.007,8.7,2.987,11.55l.008.008c2.225,3.241,5.381,4.815,9.671,4.815s7.48-1.583,9.748-4.823c1.988-2.852,2.995-6.744,2.995-11.55,0-4.772-1.016-8.664-3-11.566-2.259-3.241-5.449-4.815-9.739-4.815m0,38.313c-6.151,0-10.932-2.243-14.206-6.659-2.869-3.926-4.324-9.062-4.324-15.273s1.455-11.33,4.315-15.2c3.283-4.527,8.064-6.82,14.215-6.82s10.958,2.293,14.283,6.82c2.868,3.858,4.323,8.977,4.323,15.2s-1.455,11.347-4.323,15.256c-3.393,4.442-8.191,6.676-14.283,6.676" transform="translate(-4281.289 -1428.504)"/><path class="b" d="M4966.216,1726.671a13.528,13.528,0,0,0,7.649-2.006,7.541,7.541,0,0,0,3.605-6.769q0-5.355-7.573-7.445c-.152-.043-.381-.119-.7-.22a11.619,11.619,0,0,0-1.286-.3q-9.342-2.462-12.066-4.619a8.083,8.083,0,0,1-3.089-6.693,8.77,8.77,0,0,1,4.265-7.81,15.869,15.869,0,0,1,8.825-2.377,13.358,13.358,0,0,1,8.757,2.825,12.056,12.056,0,0,1,4.121,8.259h-2.276q-1.181-9.012-10.89-9a12.822,12.822,0,0,0-6.921,1.785,6.747,6.747,0,0,0-3.452,6.025q0,5.813,11.693,8.782a1.422,1.422,0,0,0,.736.22q6.029,1.561,8.385,3.2a8.406,8.406,0,0,1,3.9,7.437,9.6,9.6,0,0,1-4.341,8.267,16.291,16.291,0,0,1-9.265,2.6,15.762,15.762,0,0,1-10.009-3.046,12.833,12.833,0,0,1-4.561-9.375h2.285q1.827,10.268,12.209,10.264" transform="translate(-4281.289 -1428.504)"/><path class="b" d="M4966.29,1730.6a17.54,17.54,0,0,1-11.084-3.419,14.613,14.613,0,0,1-5.229-10.627l-.17-1.929h5.661l.262,1.464c1.075,6.007,4.409,8.808,10.484,8.808a11.992,11.992,0,0,0,6.693-1.718,5.755,5.755,0,0,0,2.809-5.288c0-.99,0-4-6.279-5.728l-.524-.17a9.032,9.032,0,0,0-1.32-.313c-6.659-1.751-10.813-3.367-12.836-4.967a9.816,9.816,0,0,1-3.757-8.088,10.522,10.522,0,0,1,5.077-9.316,17.707,17.707,0,0,1,9.773-2.657,15.11,15.11,0,0,1,9.857,3.224,13.887,13.887,0,0,1,4.764,9.434l.22,1.98H4974.9l-.194-1.548c-.669-5.086-3.579-7.455-9.155-7.455a11.166,11.166,0,0,0-6,1.523,4.975,4.975,0,0,0-2.623,4.51c0,3.655,5.643,5.855,10.373,7.065l.745.22c4.264,1.108,7.192,2.234,8.943,3.461a10.109,10.109,0,0,1,4.662,8.9,11.328,11.328,0,0,1-5.093,9.714,18.092,18.092,0,0,1-10.272,2.919" transform="translate(-4281.289 -1428.504)"/><path class="b" d="M5018.968,1676.749q1.4-2.678,6.033-2.682l6.769-.067v2.005h-6.405q-3.453,0-4.561,2.234a15.457,15.457,0,0,0-.66,5.508v5.5h7.505v2.158h-7.505v36.459h-2.285v-44.041q0-5.064,1.109-7.074" transform="translate(-4281.289 -1428.504)"/><path class="b" d="M5021.9,1729.636h-5.788v-45.817c0-3.7.423-6.287,1.312-7.911,1.26-2.395,3.807-3.613,7.572-3.613l8.529-.085v5.576h-8.156c-2.378,0-2.826.9-3,1.244a14.181,14.181,0,0,0-.473,4.713v3.731h7.505v5.711H5021.9Z" transform="translate(-4281.289 -1428.504)"/><path class="b" d="M5044.646,1721.246q3.821,5.571,11.11,5.575a12.837,12.837,0,0,0,11.185-5.575q3.313-4.773,3.309-12.574,0-7.742-3.309-12.573a12.824,12.824,0,0,0-11.185-5.585q-7.362,0-11.11,5.585-3.312,4.823-3.308,12.573,0,7.806,3.308,12.574m-1.692-26.713q4.416-6.1,12.8-6.1t12.878,6.1q3.972,5.357,3.968,14.139t-3.968,14.207q-4.569,5.952-12.878,5.948-8.39,0-12.8-5.948-3.973-5.433-3.977-14.207t3.977-14.139" transform="translate(-4281.289 -1428.504)"/><path class="b" d="M5055.756,1692.29c-4.324,0-7.489,1.574-9.655,4.806-2.005,2.911-3.012,6.8-3.012,11.575,0,4.806,1.007,8.7,2.987,11.55l.008.008c2.226,3.241,5.382,4.815,9.672,4.815a11.08,11.08,0,0,0,9.747-4.823c1.988-2.852,2.995-6.744,2.995-11.55,0-4.772-1.015-8.664-3-11.566-2.259-3.241-5.449-4.815-9.738-4.815m0,38.313c-6.152,0-10.932-2.243-14.207-6.659-2.868-3.926-4.323-9.062-4.323-15.273s1.455-11.33,4.323-15.2c3.275-4.527,8.055-6.82,14.207-6.82s10.957,2.293,14.282,6.82c2.868,3.858,4.324,8.977,4.324,15.2s-1.456,11.347-4.324,15.256c-3.393,4.442-8.19,6.676-14.282,6.676" transform="translate(-4281.289 -1428.504)"/><path class="b" d="M5086.8,1689.25h2.353v6.4q2.945-6.321,12.658-6.245l-1.473,2.082a11.883,11.883,0,0,0-3.9.448,11.625,11.625,0,0,0-5.153,3.791,9.686,9.686,0,0,0-2.132,6.473v25.663H5086.8Z" transform="translate(-4281.289 -1428.504)"/><path class="b" d="M5090.913,1729.636h-5.864v-42.162h5.864v3.165c2.614-2.039,6.185-3.038,10.915-3.013l3.376.026-3.96,5.6h-.9a9.945,9.945,0,0,0-3.275.339,10.1,10.1,0,0,0-4.459,3.3,7.908,7.908,0,0,0-1.692,5.306Z" transform="translate(-4281.289 -1428.504)"/><path class="b" d="M5112.039,1689.25h2.352v6.321a12.569,12.569,0,0,1,11.922-7.142q9.265,0,11.33,7.886,3.972-7.881,12.438-7.886,12.057,0,12.065,13.843v25.587h-2.36v-23.21c0-4.315-.364-7.335-1.1-9.078q-2.057-4.989-8.682-4.984-6.84,0-9.637,5.06-2.132,3.947-2.132,11.38v20.832h-2.285v-23.21c0-4.315-.364-7.335-1.1-9.078q-2.069-4.989-8.681-4.984-9.786,0-11.406,9.823c-.1.745-.186,1.676-.262,2.784-.068,1.125-.11,2.395-.11,3.833v20.832h-2.352Z" transform="translate(-4281.289 -1428.504)"/><path class="b" d="M5163.9,1729.636h-5.864V1704.65c0-5.051-.525-7.344-.965-8.376-.693-1.692-2.174-3.909-7.065-3.909-3.917,0-6.566,1.353-8.1,4.154-1.27,2.336-1.913,5.872-1.913,10.509v22.608H5134.2V1704.65c0-5.051-.525-7.344-.965-8.376-.694-1.692-2.183-3.909-7.073-3.909-5.661,0-8.732,2.648-9.672,8.334-.084.66-.16,1.548-.236,2.614-.068,1.084-.1,2.327-.1,3.715v22.608h-5.864v-42.162h5.864v2.86a14.391,14.391,0,0,1,10.162-3.672c6.447,0,9.866,2.7,11.651,5.8a14.43,14.43,0,0,1,12.117-5.8c6.3,0,13.817,2.708,13.817,15.611Z" transform="translate(-4281.289 -1428.504)"/><path class="b" d="M5182.005,1721.24q3.833,5.584,11.186,5.584t11.109-5.584q3.312-4.759,3.308-12.574,0-7.73-3.308-12.573-3.756-5.573-11.109-5.576t-11.11,5.576q-3.389,4.759-3.385,12.573t3.309,12.574m11.186,7.589q-8.314,0-12.878-5.948-3.974-5.432-3.969-14.215,0-8.845,3.969-14.206,4.416-6.028,12.878-6.025,10.66,0,14.417,9.663v-8.85h2.285v38.617h-2.285v-8.335q-3.68,9.3-14.417,9.3" transform="translate(-4281.289 -1428.504)"/><path class="b" d="M5193.191,1692.29c-4.324,0-7.489,1.574-9.663,4.806-2.048,2.885-3.08,6.769-3.08,11.575s1.007,8.7,2.995,11.55l.009.008c2.216,3.241,5.406,4.815,9.739,4.815s7.488-1.566,9.662-4.8c2-2.877,3-6.769,3-11.575,0-4.772-1.007-8.664-2.995-11.566-2.183-3.241-5.348-4.815-9.671-4.815m0,38.313c-6.093,0-10.89-2.234-14.266-6.642-2.885-3.943-4.341-9.079-4.341-15.29,0-6.27,1.456-11.4,4.324-15.281,3.274-4.459,8.08-6.735,14.283-6.735,5.4,0,9.637,1.718,12.666,5.1v-4.281h5.787v42.162h-5.787v-3.926c-3.012,3.249-7.251,4.891-12.666,4.891" transform="translate(-4281.289 -1428.504)"/><path class="b" d="M5254.989,1721.24q3.833,5.584,11.186,5.584t11.109-5.584q3.314-4.759,3.308-12.574,0-7.73-3.308-12.573-3.756-5.573-11.109-5.576t-11.11,5.576q-3.389,4.759-3.385,12.573t3.309,12.574m11.186,7.589q-8.315,0-12.878-5.948-3.973-5.432-3.969-14.215,0-8.845,3.969-14.206,4.416-6.028,12.878-6.025,10.66,0,14.417,9.663v-8.85h2.285v38.617h-2.285v-8.335q-3.679,9.3-14.417,9.3" transform="translate(-4281.289 -1428.504)"/><path class="b" d="M5266.175,1692.29c-4.324,0-7.489,1.574-9.663,4.806-2.048,2.885-3.08,6.769-3.08,11.575s1.007,8.7,2.995,11.55l.009.008c2.216,3.241,5.406,4.815,9.739,4.815s7.488-1.566,9.662-4.8c2-2.877,3-6.769,3-11.575,0-4.772-1.007-8.664-3-11.566-2.183-3.241-5.348-4.815-9.671-4.815m0,38.313c-6.093,0-10.89-2.234-14.266-6.642-2.885-3.943-4.341-9.079-4.341-15.29,0-6.27,1.456-11.4,4.324-15.281,3.275-4.459,8.08-6.735,14.283-6.735,5.4,0,9.637,1.718,12.666,5.1v-4.281h5.788v42.162h-5.788v-3.926c-3.012,3.249-7.251,4.891-12.666,4.891" transform="translate(-4281.289 -1428.504)"/><polygon class="b" points="1043.45 250.182 1043.45 260.751 1051.099 260.751 1051.099 262.832 1043.45 262.832 1043.45 299.359 1041.098 299.359 1041.098 250.182 1043.45 250.182"/><polygon class="b" points="1045.204 301.132 1039.341 301.132 1039.341 248.411 1045.204 248.411 1045.204 258.97 1052.853 258.97 1052.853 264.605 1045.204 264.605 1045.204 301.132"/><path class="b" d="M5371.752,1727.863h-2.276v-6.024q-3.617,6.993-12.878,6.989-13.1,0-13.1-13.758v-25.816h2.285v25.071q0,6.245,2.276,9.079c1.666,2.225,4.493,3.342,8.461,3.342q10.813,0,12.582-9.824c.1-.735.186-1.666.262-2.783s.11-2.445.11-3.985v-20.9h2.276Z" transform="translate(-4281.289 -1428.504)"/><path class="b" d="M5356.6,1730.6c-9.713,0-14.849-5.373-14.849-15.535v-27.592h5.787v26.847c0,3.723.635,6.4,1.887,7.954q2.031,2.7,7.1,2.7c6.38,0,9.832-2.657,10.856-8.368.085-.626.169-1.523.237-2.589q.1-1.625.1-3.867v-22.676h5.8v42.162h-5.8v-2.682c-2.758,2.42-6.481,3.647-11.118,3.647" transform="translate(-4281.289 -1428.504)"/><path class="b" d="M5400.961,1726.671a13.53,13.53,0,0,0,7.649-2.006,7.54,7.54,0,0,0,3.6-6.769q0-5.355-7.572-7.445c-.153-.043-.381-.119-.7-.22a11.511,11.511,0,0,0-1.286-.3q-9.341-2.462-12.065-4.619a8.083,8.083,0,0,1-3.089-6.693,8.77,8.77,0,0,1,4.265-7.81,15.869,15.869,0,0,1,8.825-2.377,13.358,13.358,0,0,1,8.757,2.825,12.06,12.06,0,0,1,4.121,8.259h-2.276q-1.18-9.012-10.89-9a12.822,12.822,0,0,0-6.921,1.785,6.745,6.745,0,0,0-3.452,6.025q0,5.813,11.693,8.782a1.422,1.422,0,0,0,.736.22q6.029,1.561,8.385,3.2a8.409,8.409,0,0,1,3.9,7.437,9.6,9.6,0,0,1-4.341,8.267,16.293,16.293,0,0,1-9.265,2.6,15.762,15.762,0,0,1-10.009-3.046,12.829,12.829,0,0,1-4.561-9.375h2.285q1.827,10.268,12.209,10.264" transform="translate(-4281.289 -1428.504)"/><path class="b" d="M5401.035,1730.6a17.545,17.545,0,0,1-11.085-3.419,14.62,14.62,0,0,1-5.229-10.627l-.169-1.929h5.661l.262,1.464c1.075,6.007,4.408,8.808,10.484,8.808a11.986,11.986,0,0,0,6.692-1.718,5.754,5.754,0,0,0,2.81-5.288c0-.99,0-4-6.279-5.728l-.524-.17a9.032,9.032,0,0,0-1.32-.313c-6.659-1.751-10.814-3.367-12.836-4.967a9.816,9.816,0,0,1-3.757-8.088,10.52,10.52,0,0,1,5.077-9.316,17.707,17.707,0,0,1,9.773-2.657,15.112,15.112,0,0,1,9.857,3.224,13.887,13.887,0,0,1,4.764,9.434l.22,1.98h-5.788l-.194-1.548c-.669-5.086-3.58-7.455-9.155-7.455a11.164,11.164,0,0,0-6,1.523,4.975,4.975,0,0,0-2.623,4.51c0,3.655,5.643,5.855,10.373,7.065l.745.22c4.264,1.108,7.192,2.234,8.943,3.461a10.111,10.111,0,0,1,4.662,8.9,11.328,11.328,0,0,1-5.093,9.714,18.092,18.092,0,0,1-10.272,2.919" transform="translate(-4281.289 -1428.504)"/><path class="b" d="M5454.377,1689.253h2.284v38.609h-2.284Zm1.1-15.476c1.083,0,1.616,1.168,1.616,3.495,0,2.377-.533,3.57-1.616,3.57-1.033,0-1.54-1.193-1.54-3.57,0-2.327.507-3.495,1.54-3.495" transform="translate(-4281.289 -1428.504)"/><path class="b" d="M5455.066,1679.265m.414,3.351c-1.506,0-3.3-.923-3.3-5.34,0-4.585,2.065-5.271,3.3-5.271,1.253,0,3.368.686,3.368,5.271,0,4.646-2.115,5.34-3.368,5.34m2.928,47.019h-5.788v-42.163h5.788Z" transform="translate(-4281.289 -1428.504)"/><path class="b" d="M5499.179,1696.1q-3.756-5.583-11.11-5.584t-11.109,5.584q-3.389,4.759-3.385,12.574t3.309,12.573q3.833,5.572,11.185,5.576t11.11-5.576q3.312-4.772,3.308-12.573,0-7.742-3.308-12.574m5.593,31.764h-2.285v-8.554q-3.744,9.519-14.418,9.519-8.465,0-12.878-5.949-3.972-5.355-3.968-14.206,0-8.783,3.968-14.139,4.494-6.105,12.878-6.1,10.89,0,14.418,9.3v-23.286h2.285Z" transform="translate(-4281.289 -1428.504)"/><path class="b" d="M5488.071,1692.29c-4.324,0-7.488,1.574-9.654,4.806-2.056,2.885-3.089,6.769-3.089,11.575s1.007,8.7,3,11.55c2.225,3.249,5.415,4.823,9.747,4.823s7.488-1.566,9.663-4.8c2-2.877,3-6.769,3-11.575,0-4.772-1.007-8.664-3-11.566l-.008-.009c-2.175-3.232-5.339-4.806-9.663-4.806m0,38.313c-6.194,0-11-2.243-14.282-6.659-2.869-3.867-4.324-9.012-4.324-15.273,0-6.219,1.455-11.338,4.324-15.205,3.325-4.518,8.131-6.811,14.282-6.811,5.441,0,9.68,1.625,12.667,4.823v-18.809h5.787v56.969h-5.787v-4.061c-3.03,3.342-7.269,5.026-12.667,5.026" transform="translate(-4281.289 -1428.504)"/><path class="b" d="M5548.694,1706.661a18.623,18.623,0,0,0-3.164-11.161,11.457,11.457,0,0,0-9.934-4.983,12.4,12.4,0,0,0-10.373,4.831,20.486,20.486,0,0,0-3.749,11.313Zm-13.538,22.168q-8.16,0-12.438-6.1-3.744-5.433-3.748-14.063t3.748-13.986q4.278-6.245,12.438-6.245,8.022,0,12.218,5.576,3.821,4.989,3.825,13.394v1.413h-29.8v.593a20.343,20.343,0,0,0,3.309,11.9,11.96,11.96,0,0,0,10.449,5.508q9.265,0,12.582-8.783l1.912,1.041a14.687,14.687,0,0,1-4.636,6.473,15.364,15.364,0,0,1-9.858,3.274" transform="translate(-4281.289 -1428.504)"/><path class="b" d="M5523.4,1704.889h23.471a15.875,15.875,0,0,0-2.767-8.343,9.727,9.727,0,0,0-8.512-4.256,10.675,10.675,0,0,0-8.994,4.155,17.778,17.778,0,0,0-3.2,8.444m11.752,25.714c-6.024,0-10.686-2.3-13.868-6.846-2.7-3.925-4.07-8.994-4.07-15.086,0-6.109,1.371-11.16,4.07-15.01,3.165-4.645,7.835-7.006,13.868-7.006,5.9,0,10.475,2.115,13.614,6.278,2.767,3.622,4.18,8.5,4.18,14.469v3.19h-29.775a18.067,18.067,0,0,0,2.97,9.7,10.213,10.213,0,0,0,9.011,4.756c5.424,0,9-2.5,10.941-7.632l.71-1.9,5.026,2.742-.541,1.455a16.5,16.5,0,0,1-5.187,7.234,17.138,17.138,0,0,1-10.949,3.656" transform="translate(-4281.289 -1428.504)"/><path class="b" d="M5569.22,1721.24q3.834,5.584,11.186,5.584t11.11-5.584q3.312-4.759,3.308-12.574,0-7.73-3.308-12.573-3.757-5.573-11.11-5.576t-11.11,5.576q-3.389,4.759-3.384,12.573t3.308,12.574m11.186,7.589q-8.313,0-12.878-5.948-3.972-5.432-3.968-14.215,0-8.845,3.968-14.206,4.417-6.028,12.878-6.025,10.662,0,14.418,9.663v-8.85h2.285v38.617h-2.285v-8.335q-3.681,9.3-14.418,9.3" transform="translate(-4281.289 -1428.504)"/><path class="b" d="M5580.406,1692.29c-4.324,0-7.488,1.574-9.663,4.806-2.047,2.885-3.08,6.769-3.08,11.575s1.007,8.7,3,11.55l.008.008c2.217,3.241,5.407,4.815,9.739,4.815s7.488-1.566,9.663-4.8c2-2.877,3-6.769,3-11.575,0-4.772-1.007-8.664-3-11.566-2.183-3.241-5.347-4.815-9.671-4.815m0,38.313c-6.092,0-10.89-2.234-14.266-6.642-2.885-3.943-4.34-9.079-4.34-15.29,0-6.27,1.455-11.4,4.324-15.281,3.274-4.459,8.08-6.735,14.282-6.735,5.4,0,9.637,1.718,12.667,5.1v-4.281h5.787v42.162h-5.787v-3.926c-3.013,3.249-7.252,4.891-12.667,4.891" transform="translate(-4281.289 -1428.504)"/><path class="b" d="M5626.314,1726.671a13.53,13.53,0,0,0,7.649-2.006,7.54,7.54,0,0,0,3.6-6.769q0-5.355-7.572-7.445c-.153-.043-.381-.119-.7-.22a11.511,11.511,0,0,0-1.286-.3q-9.34-2.462-12.065-4.619a8.08,8.08,0,0,1-3.089-6.693,8.77,8.77,0,0,1,4.265-7.81,15.867,15.867,0,0,1,8.825-2.377,13.358,13.358,0,0,1,8.757,2.825,12.06,12.06,0,0,1,4.121,8.259h-2.276q-1.181-9.012-10.89-9a12.822,12.822,0,0,0-6.921,1.785,6.745,6.745,0,0,0-3.452,6.025q0,5.813,11.693,8.782a1.422,1.422,0,0,0,.736.22q6.029,1.561,8.394,3.2a8.42,8.42,0,0,1,3.892,7.437,9.6,9.6,0,0,1-4.341,8.267,16.293,16.293,0,0,1-9.265,2.6,15.762,15.762,0,0,1-10.009-3.046,12.826,12.826,0,0,1-4.561-9.375h2.284q1.829,10.268,12.21,10.264" transform="translate(-4281.289 -1428.504)"/><path class="b" d="M5626.388,1730.6a17.54,17.54,0,0,1-11.084-3.419,14.613,14.613,0,0,1-5.229-10.627l-.17-1.929h5.661l.262,1.464c1.075,6.007,4.408,8.808,10.484,8.808a11.992,11.992,0,0,0,6.693-1.718,5.755,5.755,0,0,0,2.809-5.288c0-.99,0-4-6.279-5.728l-.524-.17a9.032,9.032,0,0,0-1.32-.313c-6.659-1.751-10.814-3.367-12.836-4.967a9.816,9.816,0,0,1-3.757-8.088,10.52,10.52,0,0,1,5.077-9.316,17.707,17.707,0,0,1,9.773-2.657,15.11,15.11,0,0,1,9.857,3.224,13.887,13.887,0,0,1,4.764,9.434l.211,1.98H5635l-.194-1.548c-.669-5.086-3.579-7.455-9.155-7.455a11.164,11.164,0,0,0-6,1.523,4.975,4.975,0,0,0-2.623,4.51c0,3.655,5.643,5.855,10.373,7.065l.745.22c4.264,1.108,7.183,2.234,8.943,3.461a10.109,10.109,0,0,1,4.662,8.9,11.328,11.328,0,0,1-5.093,9.714,18.092,18.092,0,0,1-10.272,2.919" transform="translate(-4281.289 -1428.504)"/><path class="c" d="M4583.746,1486.249c-.188,24.021-7.647,45.155-17.942,63.15a103.8,103.8,0,0,0-82.108-25.434c-57.291,7.345-97.968,60.441-90.707,118.307a105.979,105.979,0,0,0,20.987,51.338c-.136-.167-.335-.324-.481-.491,0,0-39.077-37.5-46.578-110.126-3.453-33.448,3.055-74.951,17.325-122.586,25.6-18.246,54.519-26.051,87.674-30.3a195.51,195.51,0,0,1,100.479,13.548c11.351,26.323,11.351,42.592,11.351,42.592" transform="translate(-4281.289 -1428.504)"/><path class="c" d="M4540.413,1825.445c-3.861.5-7.679.984-11.425,1.36l-.24.032c-25.518,2.605-48.221,2.029-68.329-.838-47.854-6.769-81.313-26.7-104.466-49.381,15.286-3.212,30.738-11.184,44.538-17.064q33.144-14.156,65.619-30.089c16.865,5.461,35.279,5.649,55.753-1.339a318.817,318.817,0,0,0,58.547-26.868c29.263-17.011,75.987-22.891,85.089,19.91,2.114,9.939.607,21-6.005,32.14-23.54,39.757-74.69,66.153-119.081,72.137" transform="translate(-4281.289 -1428.504)"/><path class="b" d="M4466.106,1729.461q-32.437,15.882-65.619,30.09c-13.789,5.879-29.252,13.862-44.538,17.064-40.687-39.8-49.769-87.977-49.769-87.977-.282-1.256-.575-2.511-.847-3.756q-3.327-15.16-4.97-29.138c-.188-1.506-.324-3.023-.512-4.53-.628-6.434-1.036-12.743-1.214-18.821-.042-1.287-.01-2.5-.042-3.725-.021-2.071-.031-4.143.063-6.173,1.423-112.96,82.777-160.511,85.592-162.091-.429,1.517-.9,3.045-1.3,4.562-23.979,83.509-11.791,144.755,3.735,182.639,12.346,30.162,26.8,45.521,26.8,45.521.136.157.356.324.492.492,15.966,16.823,33.071,29.691,52.123,35.843" transform="translate(-4281.289 -1428.504)"/><path class="d" d="M4607.771,1644.637c-18.32,17.691-41.263,31.606-64.835,44.694q-37.868,21.014-76.834,40.133-32.439,15.882-65.609,30.09c-13.8,5.88-29.252,13.852-44.537,17.064a67.991,67.991,0,0,1-8.2,1.245,43.973,43.973,0,0,1-11.916-.691c-17.577-3.421-34.651-16.656-44.81-30.068-6.623-8.757-10.9-19.879-9.458-30.811,1.956-14.637,11.676-24.21,23.76-31.408,13.318-7.941,29.524-13.015,41.472-18.759q19.821-9.541,39.882-18.518,13.544-6.058,27.181-11.843,19.71-8.412,39.652-16.258c24.481-9.615,49.381-18.739,71.645-32.81,38.365-24.241,54.665-56.14,55.031-101.17,0,0,.136-16.739-7.784-41.859.45.178.89.366,1.287.554,46.463,23.383,76.437,67.994,72.054,121.938-2.721,33.719-17.368,58.515-37.978,78.477" transform="translate(-4281.289 -1428.504)"/></svg>