<svg xmlns="http://www.w3.org/2000/svg" viewBox="0 0 845.333 900"><defs><style>.a{fill:#b0191d;}.b{fill:#d9454a;}.c{fill:#d12a2b;}</style></defs><title>logo-error</title><path class="a" d="M2958.269,4573.945c-.4,54.037-16.795,101.6-39.407,142.067-47.843-43.285-112.53-66.1-180.214-57.209-125.75,16.543-215.064,136-199.125,266.179a241.993,241.993,0,0,0,46.08,115.527c-.3-.378-.73-.731-1.058-1.109,0,0-85.764-84.353-102.231-247.772-7.579-75.264,6.7-168.657,38.021-275.849,56.2-41.043,119.657-58.594,192.452-68.162a419.9,419.9,0,0,1,220.579,30.493c24.9,59.224,24.9,95.835,24.9,95.835" transform="translate(-2294.341 -4444.016)"/><path class="a" d="M2863.146,5337.128c-8.486,1.133-16.846,2.216-25.08,3.047l-.529.1c-56,5.842-105.857,4.558-150-1.889-105.026-15.234-178.477-60.08-229.316-111.12,33.566-7.227,67.484-25.155,97.775-38.4q72.745-31.841,144.03-67.71c37.015,12.313,77.455,12.741,122.4-2.971a695.924,695.924,0,0,0,128.519-60.458c64.235-38.3,166.793-51.543,186.786,44.771,4.608,22.385,1.309,47.263-13.194,72.317-51.67,89.44-163.948,148.84-261.395,162.311" transform="translate(-2294.341 -4444.016)"/><path class="b" d="M2700.034,5121.163q-71.235,35.732-144.03,67.71c-30.292,13.219-64.235,31.172-97.775,38.4-89.314-89.565-109.257-197.966-109.257-197.966-.629-2.82-1.258-5.64-1.863-8.435q-7.29-34.107-10.9-65.569c-.4-3.4-.7-6.8-1.133-10.173-1.36-14.5-2.266-28.68-2.669-42.379-.076-2.87-.025-5.615-.076-8.359-.05-4.684-.075-9.317.151-13.9,3.1-254.143,181.675-361.134,187.869-364.709-.931,3.424-1.989,6.849-2.87,10.274-52.627,187.894-25.86,325.679,8.209,410.939,27.119,67.861,58.846,102.408,58.846,102.408.3.378.78.756,1.083,1.108,35.025,37.871,72.619,66.828,114.418,80.652" transform="translate(-2294.341 -4444.016)"/><path class="c" d="M3011.006,4930.312c-40.213,39.785-90.573,71.109-142.318,100.57q-83.133,47.288-168.657,90.271-71.2,35.767-144.03,67.709c-30.292,13.245-64.21,31.2-97.775,38.4a144.431,144.431,0,0,1-18,2.8,93.357,93.357,0,0,1-26.138-1.536c-38.6-7.7-76.094-37.493-98.378-67.659-14.529-19.691-23.922-44.72-20.749-69.346,4.28-32.911,25.634-54.44,52.148-70.656,29.234-17.852,64.789-29.259,91.027-42.176q43.511-21.492,87.551-41.7,29.726-13.6,59.677-26.64,43.284-18.924,87.047-36.587c53.709-21.6,108.376-42.152,157.276-73.828,84.2-54.515,119.983-126.279,120.789-227.629,0,0,.277-37.644-17.1-94.174,1.006.4,1.964.831,2.82,1.259,102.005,52.6,167.8,152.97,158.181,274.363-5.967,75.843-38.122,131.667-83.371,176.563" transform="translate(-2294.341 -4444.016)"/></svg>